<?xml version="1.0" encoding="UTF-8"?>
<!DOCTYPE svg PUBLIC "-//W3C//DTD SVG 1.1//EN" "http://www.w3.org/Graphics/SVG/1.1/DTD/svg11.dtd">
  <svg xmlns="http://www.w3.org/2000/svg" xmlns:xlink="http://www.w3.org/1999/xlink">
  <symbol id="plyr-airplay" viewBox="0 0 18 18"><path d="M16 1H2a1 1 0 00-1 1v10a1 1 0 001 1h3v-2H3V3h12v8h-2v2h3a1 1 0 001-1V2a1 1 0 00-1-1z"/><path d="M4 17h10l-5-6z"/></symbol>
  <symbol id="plyr-captions-off" viewBox="0 0 24 24"><path d="M0 0h24v24H0z" fill="none"/><path d="M19 4H5c-1.11 0-2 .9-2 2v12c0 1.1.89 2 2 2h14c1.1 0 2-.9 2-2V6c0-1.1-.9-2-2-2zm-8 7H9.5v-.5h-2v3h2V13H11v1c0 .55-.45 1-1 1H7c-.55 0-1-.45-1-1v-4c0-.55.45-1 1-1h3c.55 0 1 .45 1 1v1zm7 0h-1.5v-.5h-2v3h2V13H18v1c0 .55-.45 1-1 1h-3c-.55 0-1-.45-1-1v-4c0-.55.45-1 1-1h3c.55 0 1 .45 1 1v1z" fill-opacity=".5" /></symbol>
  <symbol id="plyr-captions-on" viewBox="0 0 24 24"><path d="M0 0h24v24H0z" fill="none"/><path d="M19 4H5c-1.11 0-2 .9-2 2v12c0 1.1.89 2 2 2h14c1.1 0 2-.9 2-2V6c0-1.1-.9-2-2-2zm-8 7H9.5v-.5h-2v3h2V13H11v1c0 .55-.45 1-1 1H7c-.55 0-1-.45-1-1v-4c0-.55.45-1 1-1h3c.55 0 1 .45 1 1v1zm7 0h-1.5v-.5h-2v3h2V13H18v1c0 .55-.45 1-1 1h-3c-.55 0-1-.45-1-1v-4c0-.55.45-1 1-1h3c.55 0 1 .45 1 1v1z"/></symbol>
  <symbol id="plyr-download" viewBox="0 0 18 18"><path d="M9 13c.3 0 .5-.1.7-.3L15.4 7 14 5.6l-4 4V1H8v8.6l-4-4L2.6 7l5.7 5.7c.2.2.4.3.7.3zm-7 2h14v2H2z"/></symbol>
  <symbol id="plyr-enter-fullscreen" viewBox="0 0 23 24"><path d="M0 0h24v24H0z" fill="none"/><path d="M7 14H5v5h5v-2H7v-3zm-2-4h2V7h3V5H5v5zm12 7h-3v2h5v-5h-2v3zM14 5v2h3v3h2V5h-5z"/></symbol>
  <symbol id="plyr-exit-fullscreen" viewBox="0 0 24 24"><rect fill="none" height="24" width="24"/><path d="M22,3.41l-5.29,5.29L20,12h-8V4l3.29,3.29L20.59,2L22,3.41z M3.41,22l5.29-5.29L12,20v-8H4l3.29,3.29L2,20.59L3.41,22z"/></symbol>
  <symbol id="plyr-fast-forward" viewBox="0 0 23 24"><path d="M0 0h24v24H0z" fill="none"/><path d="M4 18l8.5-6L4 6v12zm9-12v12l8.5-6L13 6z"/></symbol>
  <symbol id="plyr-logo-vimeo" viewBox="0 0 18 18"><path d="M17 5.3c-.1 1.6-1.2 3.7-3.3 6.4-2.2 2.8-4 4.2-5.5 4.2-.9 0-1.7-.9-2.4-2.6C5 10.9 4.4 6 3 6c-.1 0-.5.3-1.2.8l-.8-1c.8-.7 3.5-3.4 4.7-3.5 1.2-.1 2 .7 2.3 2.5.3 2 .8 6.1 1.8 6.1.9 0 2.5-3.4 2.6-4 .1-.9-.3-1.9-2.3-1.1.8-2.6 2.3-3.8 4.5-3.8 1.7.1 2.5 1.2 2.4 3.3z"/></symbol>
  <symbol id="plyr-logo-youtube" viewBox="0 0 18 18"><path d="M16.8 5.8c-.2-1.3-.8-2.2-2.2-2.4C12.4 3 9 3 9 3s-3.4 0-5.6.4C2 3.6 1.3 4.5 1.2 5.8 1 7.1 1 9 1 9s0 1.9.2 3.2c.2 1.3.8 2.2 2.2 2.4C5.6 15 9 15 9 15s3.4 0 5.6-.4c1.4-.3 2-1.1 2.2-2.4.2-1.3.2-3.2.2-3.2s0-1.9-.2-3.2zM7 12V6l5 3-5 3z"/></symbol>
  <symbol id="plyr-muted" viewBox="0 0 18 18"><path d="M12.4 12.5l2.1-2.1 2.1 2.1 1.4-1.4L15.9 9 18 6.9l-1.4-1.4-2.1 2.1-2.1-2.1L11 6.9 13.1 9 11 11.1zM3.786 6.008H.714C.286 6.008 0 6.31 0 6.76v4.512c0 .452.286.752.714.752h3.072l4.071 3.858c.5.3 1.143 0 1.143-.602V2.752c0-.601-.643-.977-1.143-.601L3.786 6.008z"/></symbol>
  <symbol id="plyr-pause" viewBox="0 0 18 18"><path d="M6 1H3c-.6 0-1 .4-1 1v14c0 .6.4 1 1 1h3c.6 0 1-.4 1-1V2c0-.6-.4-1-1-1zm6 0c-.6 0-1 .4-1 1v14c0 .6.4 1 1 1h3c.6 0 1-.4 1-1V2c0-.6-.4-1-1-1h-3z"/></symbol>
  <symbol id="plyr-pip" viewBox="0 0 24 24"><path d="M0 0h24v24H0V0z" fill="none"/><path d="M19 11h-8v6h8v-6zm4 8V4.98C23 3.88 22.1 3 21 3H3c-1.1 0-2 .88-2 1.98V19c0 1.1.9 2 2 2h18c1.1 0 2-.9 2-2zm-2 .02H3V4.97h18v14.05z"/></symbol>
  <symbol id="plyr-play" viewBox="0 0 18 18"><path d="M15.562 8.1L3.87.225c-.818-.562-1.87 0-1.87.9v15.75c0 .9 1.052 1.462 1.87.9L15.563 9.9c.584-.45.584-1.35 0-1.8z"/></symbol>
  <symbol id="plyr-restart" viewBox="0 0 18 18"><path d="M9.7 1.2l.7 6.4 2.1-2.1c1.9 1.9 1.9 5.1 0 7-.9 1-2.2 1.5-3.5 1.5-1.3 0-2.6-.5-3.5-1.5-1.9-1.9-1.9-5.1 0-7 .6-.6 1.4-1.1 2.3-1.3l-.6-1.9C6 2.6 4.9 3.2 4 4.1 1.3 6.8 1.3 11.2 4 14c1.3 1.3 3.1 2 4.9 2 1.9 0 3.6-.7 4.9-2 2.7-2.7 2.7-7.1 0-9.9L16 1.9l-6.3-.7z"/></symbol>
  <symbol id="plyr-rewind" viewBox="0 0 23 24"><path d="M0 0h24v24H0z" fill="none"/><path d="M11 18V6l-8.5 6 8.5 6zm.5-6l8.5 6V6l-8.5 6z"/></symbol>
  <symbol id="plyr-settings" viewBox="0 0 18 18"><path d="M16.135 7.784a2 2 0 01-1.23-2.969c.322-.536.225-.998-.094-1.316l-.31-.31c-.318-.318-.78-.415-1.316-.094a2 2 0 01-2.969-1.23C10.065 1.258 9.669 1 9.219 1h-.438c-.45 0-.845.258-.997.865a2 2 0 01-2.969 1.23c-.536-.322-.999-.225-1.317.093l-.31.31c-.318.318-.415.781-.093 1.317a2 2 0 01-1.23 2.969C1.26 7.935 1 8.33 1 8.781v.438c0 .45.258.845.865.997a2 2 0 011.23 2.969c-.322.536-.225.998.094 1.316l.31.31c.319.319.782.415 1.316.094a2 2 0 012.969 1.23c.151.607.547.865.997.865h.438c.45 0 .845-.258.997-.865a2 2 0 012.969-1.23c.535.321.997.225 1.316-.094l.31-.31c.318-.318.415-.781.094-1.316a2 2 0 011.23-2.969c.607-.151.865-.547.865-.997v-.438c0-.451-.26-.846-.865-.997zM9 12a3 3 0 110-6 3 3 0 010 6z"/></symbol>
  <symbol id="plyr-volume" viewBox="0 0 18 18"><path d="M15.6 3.3c-.4-.4-1-.4-1.4 0-.4.4-.4 1 0 1.4C15.4 5.9 16 7.4 16 9c0 1.6-.6 3.1-1.8 4.3-.4.4-.4 1 0 1.4.2.2.5.3.7.3.3 0 .5-.1.7-.3C17.1 13.2 18 11.2 18 9s-.9-4.2-2.4-5.7z"/><path d="M11.282 5.282a.909.909 0 000 1.316c.735.735.995 1.458.995 2.402 0 .936-.425 1.917-.995 2.487a.909.909 0 000 1.316c.145.145.636.262 1.018.156a.725.725 0 00.298-.156C13.773 11.733 14.13 10.16 14.13 9c0-.17-.002-.34-.011-.51-.053-.992-.319-2.005-1.522-3.208a.909.909 0 00-1.316 0zm-7.496.726H.714C.286 6.008 0 6.31 0 6.76v4.512c0 .452.286.752.714.752h3.072l4.071 3.858c.5.3 1.143 0 1.143-.602V2.752c0-.601-.643-.977-1.143-.601L3.786 6.008z"/></symbol>
</svg>