<svg width="251" height="45" viewBox="0 0 251 45" fill="none" xmlns="http://www.w3.org/2000/svg">
<path d="M14.7539 22.3441C14.7539 18.4534 11.7152 15.4431 7.6541 15.4431H0.809845V35.6066H5.32535V29.2168H7.6541C11.7152 29.2168 14.7539 26.2349 14.7539 22.3441ZM10.3804 22.3441C10.3804 23.8209 9.21606 24.9853 7.5973 24.9853H5.32535V19.703H7.5973C9.21606 19.703 10.3804 20.839 10.3804 22.3441Z" fill="#322B2F"/>
<path d="M19.0642 35.6066H23.5797V27.2856H24.3181L31.0204 35.6066H36.4446L29.3164 26.7176C31.8723 25.8089 33.2639 24.1333 33.2639 21.5206C33.2639 18.1694 30.8216 15.4431 27.016 15.4431H19.0642V35.6066ZM23.5797 23.4517V19.5894H26.4765C27.8112 19.5894 28.7768 20.2994 28.7768 21.5206C28.7768 22.6849 27.8112 23.4517 26.4765 23.4517H23.5797Z" fill="#322B2F"/>
<path d="M39.2877 35.6066H52.0674V31.2899H43.8032V27.6832H50.3634V23.3665H43.8032V19.7598H52.0674V15.4431H39.2877V35.6066Z" fill="#322B2F"/>
<path d="M62.9526 35.9474C67.2125 35.9474 70.1376 33.3915 70.166 29.728C70.1944 26.6892 68.2917 24.7581 65.3665 23.7073L63.9466 23.1961C61.8166 22.4293 60.8226 21.9465 60.8226 20.8674C60.8226 19.8166 62.0438 19.3338 63.265 19.3338C64.5429 19.3338 65.8209 19.8734 66.7581 21.0094L69.7116 17.8854C67.8373 15.8691 65.6505 15.1023 63.2082 15.1023C59.1755 15.1023 56.2503 17.4026 56.2503 21.3218C56.2503 24.0765 58.0679 26.0361 61.3338 27.1436L62.7538 27.6264C64.7701 28.308 65.5653 29.018 65.5653 30.0404C65.5653 31.006 64.6281 31.7159 63.123 31.7159C61.6462 31.7159 59.9138 30.864 58.9483 29.4156L55.4835 32.3407C57.0455 34.6127 59.7718 35.9474 62.9526 35.9474Z" fill="#322B2F"/>
<path d="M78.0726 35.6066H82.6165V19.7598H87.8136V15.4431H72.9323V19.7598H78.0726V35.6066Z" fill="#322B2F"/>
<path d="M100.509 35.9474C106.245 35.9474 110.931 31.2615 110.931 25.5249C110.931 19.7882 106.245 15.1023 100.509 15.1023C94.7435 15.1023 90.086 19.7882 90.086 25.5249C90.086 31.2615 94.7435 35.9474 100.509 35.9474ZM100.509 31.5739C97.2142 31.5739 94.6299 28.7908 94.6299 25.5249C94.6299 22.2589 97.2142 19.4758 100.509 19.4758C103.774 19.4758 106.359 22.2589 106.359 25.5249C106.359 28.7908 103.774 31.5739 100.509 31.5739Z" fill="#322B2F"/>
<path d="M168.77 39.1425H171.213V31.0203C172.15 32.3834 174.081 33.491 176.211 33.491C180.158 33.491 183.169 30.1683 183.169 26.1072C183.169 22.0461 180.158 18.7233 176.211 18.7233C174.081 18.7233 172.15 19.8309 171.213 21.1941V19.0073H168.77V39.1425ZM180.67 26.1072C180.67 28.9755 178.71 31.2475 175.842 31.2475C172.973 31.2475 171.014 28.9755 171.014 26.1072C171.014 23.2388 172.973 20.9669 175.842 20.9669C178.71 20.9669 180.67 23.2388 180.67 26.1072Z" fill="#786B72"/>
<path d="M186.686 33.207H189.129V11.9075H186.686V33.207Z" fill="#786B72"/>
<path d="M192.651 26.1072C192.651 30.1683 195.633 33.491 199.609 33.491C201.739 33.491 203.67 32.3834 204.607 31.0203V33.207H207.049V19.0073H204.607V21.1941C203.67 19.8309 201.739 18.7233 199.609 18.7233C195.633 18.7233 192.651 22.0461 192.651 26.1072ZM204.806 26.1072C204.806 28.9755 202.846 31.2475 199.978 31.2475C197.11 31.2475 195.122 28.9755 195.122 26.1072C195.122 23.2388 197.11 20.9669 199.978 20.9669C202.846 20.9669 204.806 23.2388 204.806 26.1072Z" fill="#786B72"/>
<path d="M215.424 39.1425L224.739 19.0073H222.012L217.156 29.7707L212.271 19.0073H209.574L215.793 32.4686L212.697 39.1425H215.424Z" fill="#786B72"/>
<path d="M225.765 26.1072C225.765 30.2819 228.718 33.491 233.12 33.491C236.074 33.491 238.232 32.1846 239.51 30.1115L237.579 28.7767C236.699 30.2819 235.336 31.2475 233.149 31.2475C230.337 31.2475 228.321 29.2595 228.236 26.59H239.879C239.908 26.2776 239.908 26.1072 239.908 25.8516C239.879 21.3077 236.869 18.7233 233.149 18.7233C228.832 18.7233 225.765 21.9609 225.765 26.1072ZM233.064 20.8817C235.222 20.8817 237.068 22.2732 237.409 24.602H228.406C228.86 22.2448 230.934 20.8817 233.064 20.8817Z" fill="#786B72"/>
<path d="M243.374 33.207H245.816V26.164C245.816 22.8412 247.776 21.2793 249.565 21.2793C250.048 21.2793 250.446 21.3361 250.9 21.5065V18.9789C250.502 18.8937 250.162 18.8653 249.792 18.8653C248.145 18.8653 246.384 19.9445 245.816 21.7621V19.0073H243.374V33.207Z" fill="#786B72"/>
<path d="M145.243 24.3555L156.843 17.6579L156.843 31.053L145.243 24.3555Z" fill="#3A30E5"/>
<path d="M145.246 10.9615L156.846 17.6591L145.246 24.3566L145.246 10.9615Z" fill="#3058E5"/>
<path d="M145.246 10.9613L145.246 24.3564L133.645 17.6588L145.246 10.9613Z" fill="#4067EE"/>
<path d="M145.274 10.9502L133.674 17.6477L133.674 4.25269L145.274 10.9502Z" fill="#476EF9"/>
<path d="M133.679 17.6635L133.679 31.0585L122.079 24.361L133.679 17.6635Z" fill="#624AF6"/>
<path d="M133.679 4.29969L133.679 17.6947L122.079 10.9972L133.679 4.29969Z" fill="#4067EE"/>
<path d="M133.679 31.0424L133.679 44.4374L122.079 37.7399L133.679 31.0424Z" fill="#7C3AED"/>
<path d="M145.246 24.3566L156.846 31.0541L145.246 37.7516L145.246 24.3566Z" fill="#4F46E5"/>
<path d="M122.081 24.3566L133.681 31.0541L122.081 37.7516L122.081 24.3566Z" fill="#814AF7"/>
<path d="M122.081 10.972L133.681 17.6696L122.081 24.3671L122.081 10.972Z" fill="#3058E5"/>
<path d="M145.246 24.3561L145.246 37.7511L133.645 31.0536L145.246 24.3561Z" fill="#624AF6"/>
<path d="M145.24 24.3555L156.841 17.6579L156.841 31.053L145.24 24.3555Z" fill="#3A30E5"/>
<path d="M145.243 10.9615L156.843 17.6591L145.243 24.3566L145.243 10.9615Z" fill="#3058E5"/>
<path d="M145.243 10.9613L145.243 24.3564L133.642 17.6588L145.243 10.9613Z" fill="#4067EE"/>
<path d="M145.272 10.9502L133.671 17.6477L133.671 4.25269L145.272 10.9502Z" fill="#476EF9"/>
<path d="M133.677 17.6635L133.677 31.0585L122.076 24.361L133.677 17.6635Z" fill="#624AF6"/>
<path d="M133.677 4.29969L133.677 17.6947L122.076 10.9972L133.677 4.29969Z" fill="#4067EE"/>
<path d="M133.677 31.0424L133.677 44.4374L122.076 37.7399L133.677 31.0424Z" fill="#7C3AED"/>
<path d="M145.243 24.3566L156.843 31.0541L145.243 37.7516L145.243 24.3566Z" fill="#4F46E5"/>
<path d="M122.078 24.3566L133.678 31.0541L122.078 37.7516L122.078 24.3566Z" fill="#814AF7"/>
<path d="M122.078 10.972L133.678 17.6696L122.078 24.3671L122.078 10.972Z" fill="#3058E5"/>
<path d="M145.243 24.3561L145.243 37.7511L133.642 31.0536L145.243 24.3561Z" fill="#624AF6"/>
<path d="M145.237 24.3555L156.838 17.6579L156.838 31.053L145.237 24.3555Z" fill="#3A30E5"/>
<path d="M145.24 10.9615L156.841 17.6591L145.24 24.3566L145.24 10.9615Z" fill="#3058E5"/>
<path d="M145.24 10.9613L145.24 24.3564L133.64 17.6588L145.24 10.9613Z" fill="#4067EE"/>
<path d="M145.269 10.9502L133.669 17.6477L133.669 4.25269L145.269 10.9502Z" fill="#476EF9"/>
<path d="M133.674 17.6635L133.674 31.0585L122.073 24.361L133.674 17.6635Z" fill="#624AF6"/>
<path d="M133.674 4.29969L133.674 17.6947L122.073 10.9972L133.674 4.29969Z" fill="#4067EE"/>
<path d="M133.674 31.0424L133.674 44.4374L122.073 37.7399L133.674 31.0424Z" fill="#7C3AED"/>
<path d="M145.24 24.3566L156.841 31.0541L145.24 37.7516L145.24 24.3566Z" fill="#4F46E5"/>
<path d="M122.075 24.3566L133.676 31.0541L122.075 37.7516L122.075 24.3566Z" fill="#814AF7"/>
<path d="M122.075 10.972L133.676 17.6696L122.075 24.3671L122.075 10.972Z" fill="#3058E5"/>
<path d="M145.24 24.3561L145.24 37.7511L133.64 31.0536L145.24 24.3561Z" fill="#624AF6"/>
</svg>
