<?xml version="1.0" encoding="UTF-8"?><!DOCTYPE svg PUBLIC "-//W3C//DTD SVG 1.1//EN" "http://www.w3.org/Graphics/SVG/1.1/DTD/svg11.dtd"><svg xmlns="http://www.w3.org/2000/svg" xmlns:xlink="http://www.w3.org/1999/xlink"><symbol id="plyr-airplay" viewBox="0 0 18 18"><path d="M16 1H2a1 1 0 00-1 1v10a1 1 0 001 1h3v-2H3V3h12v8h-2v2h3a1 1 0 001-1V2a1 1 0 00-1-1z"/><path d="M4 17h10l-5-6z"/></symbol><symbol id="plyr-captions-off" viewBox="0 0 18 18"><path d="M1 1c-.6 0-1 .4-1 1v11c0 .6.4 1 1 1h4.6l2.7 2.7c.2.2.4.3.7.3.3 0 .5-.1.7-.3l2.7-2.7H17c.6 0 1-.4 1-1V2c0-.6-.4-1-1-1H1zm4.52 10.15c1.99 0 3.01-1.32 3.28-2.41l-1.29-.39c-.19.66-.78 1.45-1.99 1.45-1.14 0-2.2-.83-2.2-2.34 0-1.61 1.12-2.37 2.18-2.37 1.23 0 1.78.75 1.95 1.43l1.3-.41C8.47 4.96 7.46 3.76 5.5 3.76c-1.9 0-3.61 1.44-3.61 3.7 0 2.26 1.65 3.69 3.63 3.69zm7.57 0c1.99 0 3.01-1.32 3.28-2.41l-1.29-.39c-.19.66-.78 1.45-1.99 1.45-1.14 0-2.2-.83-2.2-2.34 0-1.61 1.12-2.37 2.18-2.37 1.23 0 1.78.75 1.95 1.43l1.3-.41c-.28-1.15-1.29-2.35-3.25-2.35-1.9 0-3.61 1.44-3.61 3.7 0 2.26 1.65 3.69 3.63 3.69z" fill-rule="evenodd" fill-opacity=".5"/></symbol><symbol id="plyr-captions-on" viewBox="0 0 18 18"><path d="M1 1c-.6 0-1 .4-1 1v11c0 .6.4 1 1 1h4.6l2.7 2.7c.2.2.4.3.7.3.3 0 .5-.1.7-.3l2.7-2.7H17c.6 0 1-.4 1-1V2c0-.6-.4-1-1-1H1zm4.52 10.15c1.99 0 3.01-1.32 3.28-2.41l-1.29-.39c-.19.66-.78 1.45-1.99 1.45-1.14 0-2.2-.83-2.2-2.34 0-1.61 1.12-2.37 2.18-2.37 1.23 0 1.78.75 1.95 1.43l1.3-.41C8.47 4.96 7.46 3.76 5.5 3.76c-1.9 0-3.61 1.44-3.61 3.7 0 2.26 1.65 3.69 3.63 3.69zm7.57 0c1.99 0 3.01-1.32 3.28-2.41l-1.29-.39c-.19.66-.78 1.45-1.99 1.45-1.14 0-2.2-.83-2.2-2.34 0-1.61 1.12-2.37 2.18-2.37 1.23 0 1.78.75 1.95 1.43l1.3-.41c-.28-1.15-1.29-2.35-3.25-2.35-1.9 0-3.61 1.44-3.61 3.7 0 2.26 1.65 3.69 3.63 3.69z" fill-rule="evenodd"/></symbol><symbol id="plyr-download" viewBox="0 0 18 18"><path d="M9 13c.3 0 .5-.1.7-.3L15.4 7 14 5.6l-4 4V1H8v8.6l-4-4L2.6 7l5.7 5.7c.2.2.4.3.7.3zm-7 2h14v2H2z"/></symbol><symbol id="plyr-enter-fullscreen" viewBox="0 0 18 18"><path d="M10 3h3.6l-4 4L11 8.4l4-4V8h2V1h-7zM7 9.6l-4 4V10H1v7h7v-2H4.4l4-4z"/></symbol><symbol id="plyr-exit-fullscreen" viewBox="0 0 18 18"><path d="M1 12h3.6l-4 4L2 17.4l4-4V17h2v-7H1zM16 .6l-4 4V1h-2v7h7V6h-3.6l4-4z"/></symbol><symbol id="plyr-fast-forward" viewBox="0 0 23 24">
<path fill-rule="evenodd" clip-rule="evenodd" d="M17.4128 0.270146C17.0078 0.645666 16.984 1.27838 17.3595 1.68335L17.5621 1.90185L12.1129 1.86579C9.75939 1.78232 7.44205 2.46424 5.50869 3.80947C3.5711 5.15765 2.12414 7.09902 1.38583 9.34107C0.647519 11.5831 0.657857 14.0044 1.41529 16.24C2.17272 18.4757 3.6362 20.4046 5.58524 21.7362C7.53428 23.0678 9.86328 23.7299 12.2213 23.6227C14.5794 23.5156 16.8387 22.645 18.6589 21.1421C20.4792 19.6392 21.7617 17.5855 22.3132 15.2903C22.8647 12.9952 22.6554 10.583 21.7168 8.41715C21.4972 7.91041 20.9084 7.67764 20.4016 7.89725C19.8949 8.11686 19.6621 8.70569 19.8817 9.21243C20.6479 10.9804 20.8188 12.9495 20.3686 14.823C19.9183 16.6966 18.8714 18.373 17.3856 19.5998C15.8997 20.8266 14.0554 21.5373 12.1305 21.6248C10.2056 21.7123 8.30448 21.1718 6.71347 20.0848C5.12247 18.9979 3.92782 17.4232 3.30953 15.5983C2.69124 13.7733 2.6828 11.7968 3.28548 9.96663C3.88816 8.13644 5.06932 6.55169 6.65099 5.45117C8.23265 4.35064 10.1291 3.79396 12.0547 3.86499C12.0648 3.86536 12.0749 3.86558 12.0849 3.86565L17.5732 3.90197L17.265 4.18775C16.86 4.56327 16.8361 5.19599 17.2116 5.60096C17.5872 6.00593 18.2199 6.02981 18.6249 5.65429L20.6576 3.7694C21.0626 3.39388 21.0864 2.76117 20.7109 2.3562L18.826 0.323476C18.4505 -0.0814974 17.8178 -0.105374 17.4128 0.270146ZM12.3623 16.7406C12.914 17.0794 13.5444 17.2489 14.2537 17.2489C14.9551 17.2489 15.5816 17.0794 16.1333 16.7406C16.685 16.4017 17.1145 15.9091 17.4218 15.2629C17.7371 14.6088 17.8947 13.8364 17.8947 12.9459C17.8947 12.0553 17.7371 11.287 17.4218 10.6407C17.1145 9.9866 16.685 9.4901 16.1333 9.15122C15.5816 8.81234 14.9551 8.6429 14.2537 8.6429C13.5444 8.6429 12.914 8.81234 12.3623 9.15122C11.8106 9.4901 11.3772 9.9866 11.0619 10.6407C10.7546 11.287 10.6009 12.0553 10.6009 12.9459C10.6009 13.8364 10.7546 14.6088 11.0619 15.2629C11.3772 15.9091 11.8106 16.4017 12.3623 16.7406ZM15.1876 14.7664C14.9591 15.1447 14.6478 15.3338 14.2537 15.3338C13.8518 15.3338 13.5326 15.1447 13.2962 14.7664C13.0676 14.3802 12.9534 13.7734 12.9534 12.9459C12.9534 12.1184 13.0676 11.5155 13.2962 11.1372C13.5326 10.751 13.8518 10.558 14.2537 10.558C14.6478 10.558 14.9591 10.751 15.1876 11.1372C15.424 11.5155 15.5422 12.1184 15.5422 12.9459C15.5422 13.7734 15.424 14.3802 15.1876 14.7664ZM9.35641 17.0834V8.8084H5.47899V10.6171H7.01578V17.0834H9.35641Z"/>
</symbol><symbol id="plyr-logo-vimeo" viewBox="0 0 18 18"><path d="M17 5.3c-.1 1.6-1.2 3.7-3.3 6.4-2.2 2.8-4 4.2-5.5 4.2-.9 0-1.7-.9-2.4-2.6C5 10.9 4.4 6 3 6c-.1 0-.5.3-1.2.8l-.8-1c.8-.7 3.5-3.4 4.7-3.5 1.2-.1 2 .7 2.3 2.5.3 2 .8 6.1 1.8 6.1.9 0 2.5-3.4 2.6-4 .1-.9-.3-1.9-2.3-1.1.8-2.6 2.3-3.8 4.5-3.8 1.7.1 2.5 1.2 2.4 3.3z"/></symbol><symbol id="plyr-logo-youtube" viewBox="0 0 18 18"><path d="M16.8 5.8c-.2-1.3-.8-2.2-2.2-2.4C12.4 3 9 3 9 3s-3.4 0-5.6.4C2 3.6 1.3 4.5 1.2 5.8 1 7.1 1 9 1 9s0 1.9.2 3.2c.2 1.3.8 2.2 2.2 2.4C5.6 15 9 15 9 15s3.4 0 5.6-.4c1.4-.3 2-1.1 2.2-2.4.2-1.3.2-3.2.2-3.2s0-1.9-.2-3.2zM7 12V6l5 3-5 3z"/></symbol><symbol id="plyr-muted" viewBox="0 0 18 18"><path d="M12.4 12.5l2.1-2.1 2.1 2.1 1.4-1.4L15.9 9 18 6.9l-1.4-1.4-2.1 2.1-2.1-2.1L11 6.9 13.1 9 11 11.1zM3.786 6.008H.714C.286 6.008 0 6.31 0 6.76v4.512c0 .452.286.752.714.752h3.072l4.071 3.858c.5.3 1.143 0 1.143-.602V2.752c0-.601-.643-.977-1.143-.601L3.786 6.008z"/></symbol><symbol id="plyr-pause" viewBox="0 0 18 18"><path d="M6 1H3c-.6 0-1 .4-1 1v14c0 .6.4 1 1 1h3c.6 0 1-.4 1-1V2c0-.6-.4-1-1-1zm6 0c-.6 0-1 .4-1 1v14c0 .6.4 1 1 1h3c.6 0 1-.4 1-1V2c0-.6-.4-1-1-1h-3z"/></symbol><symbol id="plyr-pip" viewBox="0 0 18 18"><path d="M13.293 3.293L7.022 9.564l1.414 1.414 6.271-6.271L17 7V1h-6z"/><path d="M13 15H3V5h5V3H2a1 1 0 00-1 1v12a1 1 0 001 1h12a1 1 0 001-1v-6h-2v5z"/></symbol><symbol id="plyr-play" viewBox="0 0 18 18"><path d="M15.562 8.1L3.87.225c-.818-.562-1.87 0-1.87.9v15.75c0 .9 1.052 1.462 1.87.9L15.563 9.9c.584-.45.584-1.35 0-1.8z"/></symbol><symbol id="plyr-restart" viewBox="0 0 18 18"><path d="M9.7 1.2l.7 6.4 2.1-2.1c1.9 1.9 1.9 5.1 0 7-.9 1-2.2 1.5-3.5 1.5-1.3 0-2.6-.5-3.5-1.5-1.9-1.9-1.9-5.1 0-7 .6-.6 1.4-1.1 2.3-1.3l-.6-1.9C6 2.6 4.9 3.2 4 4.1 1.3 6.8 1.3 11.2 4 14c1.3 1.3 3.1 2 4.9 2 1.9 0 3.6-.7 4.9-2 2.7-2.7 2.7-7.1 0-9.9L16 1.9l-6.3-.7z"/></symbol><symbol id="plyr-rewind" viewBox="0 0 23 24"><path fill-rule="evenodd" clip-rule="evenodd" d="M6.01408 0.611089C6.41905 0.986609 6.44293 1.61932 6.06741 2.0243L5.8648 2.24279L11.3139 2.20673C13.6675 2.12326 15.9848 2.80518 17.9182 4.15041C19.8558 5.4986 21.3028 7.43997 22.0411 9.68201C22.7794 11.9241 22.769 14.3453 22.0116 16.581C21.2542 18.8166 19.7907 20.7456 17.8417 22.0772C15.8926 23.4087 13.5636 24.0708 11.2056 23.9637C8.84753 23.8565 6.58818 22.9859 4.76795 21.483C2.94772 19.9802 1.66522 17.9264 1.11369 15.6313C0.562159 13.3362 0.771473 10.9239 1.71009 8.75809C1.9297 8.25135 2.51853 8.01858 3.02528 8.23819C3.53202 8.4578 3.76479 9.04663 3.54518 9.55337C2.77898 11.3214 2.60811 13.2905 3.05833 15.164C3.50855 17.0375 4.55546 18.714 6.04132 19.9408C7.52717 21.1676 9.37149 21.8783 11.2964 21.9657C13.2212 22.0532 15.1224 21.5127 16.7134 20.4258C18.3044 19.3388 19.4991 17.7642 20.1174 15.9392C20.7357 14.1142 20.7441 12.1378 20.1414 10.3076C19.5387 8.47738 18.3576 6.89263 16.7759 5.79211C15.1942 4.69159 13.2978 4.1349 11.3722 4.20593C11.3621 4.20631 11.352 4.20652 11.342 4.20659L5.85372 4.24291L6.16192 4.52869C6.56689 4.90421 6.59077 5.53693 6.21525 5.9419C5.83973 6.34687 5.20701 6.37075 4.80204 5.99523L2.76932 4.11035C2.36435 3.73483 2.34047 3.10211 2.71599 2.69714L4.60087 0.664418C4.97639 0.259445 5.60911 0.235569 6.01408 0.611089ZM12.3623 16.7406C12.914 17.0794 13.5444 17.2489 14.2537 17.2489C14.9551 17.2489 15.5816 17.0794 16.1333 16.7406C16.685 16.4017 17.1145 15.9091 17.4218 15.2629C17.7371 14.6088 17.8947 13.8364 17.8947 12.9459C17.8947 12.0553 17.7371 11.2869 17.4218 10.6407C17.1145 9.98659 16.685 9.49009 16.1333 9.15121C15.5816 8.81233 14.9551 8.64289 14.2537 8.64289C13.5444 8.64289 12.914 8.81233 12.3623 9.15121C11.8106 9.49009 11.3772 9.98659 11.0619 10.6407C10.7546 11.2869 10.6009 12.0553 10.6009 12.9459C10.6009 13.8364 10.7546 14.6088 11.0619 15.2629C11.3772 15.9091 11.8106 16.4017 12.3623 16.7406ZM15.1876 14.7664C14.9591 15.1447 14.6478 15.3338 14.2537 15.3338C13.8518 15.3338 13.5326 15.1447 13.2962 14.7664C13.0676 14.3802 12.9534 13.7734 12.9534 12.9459C12.9534 12.1184 13.0676 11.5155 13.2962 11.1372C13.5326 10.751 13.8518 10.558 14.2537 10.558C14.6478 10.558 14.9591 10.751 15.1876 11.1372C15.424 11.5155 15.5422 12.1184 15.5422 12.9459C15.5422 13.7734 15.424 14.3802 15.1876 14.7664ZM9.35642 17.0834V8.80839H5.47899V10.6171H7.01578V17.0834H9.35642Z"/></symbol><symbol id="plyr-settings" viewBox="0 0 18 18"><path d="M16.135 7.784a2 2 0 01-1.23-2.969c.322-.536.225-.998-.094-1.316l-.31-.31c-.318-.318-.78-.415-1.316-.094a2 2 0 01-2.969-1.23C10.065 1.258 9.669 1 9.219 1h-.438c-.45 0-.845.258-.997.865a2 2 0 01-2.969 1.23c-.536-.322-.999-.225-1.317.093l-.31.31c-.318.318-.415.781-.093 1.317a2 2 0 01-1.23 2.969C1.26 7.935 1 8.33 1 8.781v.438c0 .45.258.845.865.997a2 2 0 011.23 2.969c-.322.536-.225.998.094 1.316l.31.31c.319.319.782.415 1.316.094a2 2 0 012.969 1.23c.151.607.547.865.997.865h.438c.45 0 .845-.258.997-.865a2 2 0 012.969-1.23c.535.321.997.225 1.316-.094l.31-.31c.318-.318.415-.781.094-1.316a2 2 0 011.23-2.969c.607-.151.865-.547.865-.997v-.438c0-.451-.26-.846-.865-.997zM9 12a3 3 0 110-6 3 3 0 010 6z"/></symbol><symbol id="plyr-volume" viewBox="0 0 18 18"><path d="M15.6 3.3c-.4-.4-1-.4-1.4 0-.4.4-.4 1 0 1.4C15.4 5.9 16 7.4 16 9c0 1.6-.6 3.1-1.8 4.3-.4.4-.4 1 0 1.4.2.2.5.3.7.3.3 0 .5-.1.7-.3C17.1 13.2 18 11.2 18 9s-.9-4.2-2.4-5.7z"/><path d="M11.282 5.282a.909.909 0 000 1.316c.735.735.995 1.458.995 2.402 0 .936-.425 1.917-.995 2.487a.909.909 0 000 1.316c.145.145.636.262 1.018.156a.725.725 0 00.298-.156C13.773 11.733 14.13 10.16 14.13 9c0-.17-.002-.34-.011-.51-.053-.992-.319-2.005-1.522-3.208a.909.909 0 00-1.316 0zm-7.496.726H.714C.286 6.008 0 6.31 0 6.76v4.512c0 .452.286.752.714.752h3.072l4.071 3.858c.5.3 1.143 0 1.143-.602V2.752c0-.601-.643-.977-1.143-.601L3.786 6.008z"/></symbol></svg>