<svg width="780" height="500" viewBox="0 0 780 500" fill="none" xmlns="http://www.w3.org/2000/svg">
<g clip-path="url(#clip0_405_51)">
<path d="M780 0H0V500H780V0Z" fill="#006FCF"/>
<path fill-rule="evenodd" clip-rule="evenodd" d="M780.11 500L780.345 500V260.042V0H780.11V79.3206H706.057L701.849 91.1177C699.535 97.6066 695.807 108.059 693.564 114.347L689.486 125.779L673.234 79.3447L577.426 79.3206L576.895 139.507L550.427 79.8226H472.62L393 260.042H456.973V420.683H657.32L672.702 403.648C681.163 394.279 688.398 386.808 688.782 387.046C689.167 387.283 696.203 394.949 704.417 404.08L719.351 420.683H780.11V500ZM780.345 260.042L730.435 260.141L709.888 282.764C690.507 304.102 689.254 305.279 687.81 303.497C686.968 302.457 677.766 292.255 667.36 280.825L648.441 260.042H479.051V400.603H647.437L666.357 379.82C676.762 368.391 685.988 358.16 686.858 357.087C688.369 355.22 689.345 356.138 708.935 377.825L729.432 400.516L754.328 400.56C773.995 400.594 779.063 400.339 778.456 399.348C778.034 398.658 763.443 383.02 746.033 364.596C728.623 346.173 714.265 330.812 714.128 330.459C713.883 329.836 727.597 315.16 762.916 278.254L780.345 260.042ZM425.714 238.225C426.632 236.502 482.861 109.243 485.62 102.646L486.992 99.3657L536.528 99.9028L597.969 239.221L598.485 99.4008H658.287L673.713 142.573C682.196 166.318 689.398 185.737 689.716 185.726C690.034 185.716 697.244 166.289 705.74 142.554L721.186 99.4008H780.11V239.962H741.976L741.901 142.071L706.131 239.46H672.363L654.735 191.584C645.04 165.252 636.769 143.376 636.354 142.973C635.94 142.569 635.601 164.232 635.601 191.112V239.985L555.158 239.46L543.729 212.352L478.549 211.836L467.252 239.46L446.01 239.731C425.955 239.987 424.821 239.903 425.714 238.225ZM530.063 179.826C529.88 179.331 525.692 169.165 520.758 157.236C515.824 145.306 511.482 135.545 511.108 135.545C510.593 135.545 497.029 167.29 492.555 178.968C491.928 180.604 493.212 180.725 511.14 180.725C522.067 180.725 530.253 180.336 530.063 179.826ZM664.646 330.503L636.473 300.544C620.977 284.066 606.089 268.33 603.385 265.576L598.471 260.568V292.17H517.185V315.263H596.464V346.387H517.185V368.475H598.471V384.096C598.471 393.46 598.844 399.487 599.403 399.141C599.916 398.824 614.805 383.251 632.49 364.534L664.646 330.503ZM742.477 330.158C742.477 329.679 750.832 320.417 761.043 309.576L779.608 289.864L779.88 310.093C780.029 321.219 780.029 339.402 779.88 350.498L779.608 370.674L761.043 350.852C750.832 339.949 742.477 330.637 742.477 330.158Z" fill="white"/>
</g>
<defs>
<clipPath id="clip0_405_51">
<rect width="780" height="500" fill="white"/>
</clipPath>
</defs>
</svg>
