<svg width="780" height="500" viewBox="0 0 780 500" fill="none" xmlns="http://www.w3.org/2000/svg">
<rect width="780" height="500" fill="white"/>
<path d="M486.036 423.935C580.883 424.4 658.66 346.616 657.996 251.974C658.652 154.746 580.883 76.9695 486.036 77H295.982C199.998 76.9771 122.221 154.746 121 251.974C122.221 346.616 199.998 424.393 295.974 423.935H486.036V423.935Z" fill="#2D4F9E"/>
<path d="M133.073 251.974C134.019 161.263 206.507 88.7672 295.982 89.0725C385.358 88.7672 457.854 161.263 458.884 251.982C457.854 340.114 385.358 412.61 295.982 411.87C206.507 412.61 134.019 340.107 133.073 251.974V251.974Z" fill="white"/>
<path d="M259.772 155.44C222.281 172.359 194.152 208.53 193.404 251.974C194.152 293.785 220.937 330.613 259.772 345.494V155.44ZM332.177 345.502C370.92 330.621 397.698 293.785 398.545 251.982C397.698 207.599 370.912 170.764 332.177 155.448V345.502Z" fill="#2D4F9E"/>
</svg>
