<svg width="780" height="500" viewBox="0 0 780 500" fill="none" xmlns="http://www.w3.org/2000/svg">
<rect width="780" height="500" fill="white"/>
<g clip-path="url(#clip0_405_62)">
<path fill-rule="evenodd" clip-rule="evenodd" d="M71 188.75C71 187.1 71.24 186.5 73.11 186.53C82.7 186.67 92.29 186.4 101.87 186.69C115.97 187.13 128.78 191.24 139.23 201.2C146.308 207.858 151.041 216.629 152.72 226.2C156.26 245.59 150.79 262.04 136.02 275.2C127.96 282.38 118.3 285.99 107.62 286.85C95.86 287.85 84.06 287.05 72.28 287.31C70.87 287.31 71.03 286.57 71.03 285.69C71 275.73 71.06 204.8 71 188.75ZM90.61 268.33C90.61 269.7 90.89 270.13 92.33 270.12C96.26 270.06 100.19 270.12 104.1 269.67C111.23 268.87 117.91 266.82 123.1 261.6C131.88 252.82 135.1 242.15 132.66 230.07C130.22 217.99 123.21 209.34 111.07 205.58C105.16 203.75 99.01 203.86 92.89 203.78C91.15 203.78 90.54 204.11 90.56 206.02C90.7 216.34 90.67 257.93 90.61 268.33Z" fill="#151011"/>
<path fill-rule="evenodd" clip-rule="evenodd" d="M666 245.04L697.56 287.24H693.31C687.39 287.24 681.45 287.14 675.53 287.29C674.795 287.354 674.057 287.199 673.411 286.842C672.764 286.486 672.239 285.946 671.9 285.29C663.68 272.97 655.42 260.677 647.12 248.41C646.995 248.256 646.888 248.088 646.8 247.91C646.3 246.68 645.22 246.76 644.27 246.96C643.32 247.16 643.72 248.16 643.72 248.78C643.72 260.84 643.64 272.9 643.72 284.95C643.72 286.95 643.14 287.35 641.28 287.3C636.09 287.17 630.89 287.22 625.69 287.3C624.38 287.3 623.85 287.08 623.85 285.59C623.903 253.15 623.903 220.707 623.85 188.26C623.85 187.16 623.96 186.57 625.32 186.6C636.51 186.83 647.71 186.15 658.88 187.01C666.64 187.6 673.94 189.7 679.88 195.01C687.04 201.35 689.05 209.68 688.56 218.85C687.85 232.33 680.5 241.24 667.4 244.56C666.926 244.697 666.459 244.857 666 245.04V245.04ZM643.7 217.76C643.7 222.22 643.78 226.67 643.7 231.12C643.7 232.69 644.16 232.99 645.59 232.93C648.51 232.81 651.43 232.88 654.35 232.57C662.9 231.67 667.76 226.73 668.35 218.16C668.86 211.27 665.35 206.05 658.78 203.9C654.47 202.49 650.02 202.64 645.57 202.56C644.12 202.56 643.63 202.84 643.67 204.4C643.81 208.85 643.74 213.3 643.74 217.76H643.7Z" fill="#151011"/>
<path fill-rule="evenodd" clip-rule="evenodd" d="M555.47 188.54C555.47 187.03 555.77 186.54 557.4 186.54C574.733 186.613 592.067 186.613 609.4 186.54C610.75 186.54 611.24 186.8 611.21 188.26C611.11 192.927 611.11 197.593 611.21 202.26C611.21 203.67 610.72 203.85 609.5 203.85C598.78 203.85 588.05 203.85 577.33 203.78C575.51 203.78 575.15 204.29 575.18 206C575.28 212.06 575.28 218.12 575.18 224.18C575.18 225.7 575.58 226.06 577.07 226.06C587.39 225.99 597.72 226.06 608.07 225.98C609.7 225.98 610.01 226.47 609.98 227.98C609.887 232.44 609.887 236.903 609.98 241.37C609.98 242.78 609.61 243.12 608.23 243.11C597.97 243.05 587.71 243.11 577.45 243.02C575.54 243.02 575.19 243.61 575.21 245.36C575.303 252.947 575.303 260.54 575.21 268.14C575.21 269.65 575.51 270.14 577.14 270.14C587.86 270.05 598.59 270.14 609.31 270.05C610.91 270.05 611.31 270.5 611.24 272.05C611.14 276.65 611.17 281.24 611.24 285.84C611.24 286.94 610.98 287.31 609.81 287.31C592.23 287.27 574.647 287.27 557.06 287.31C555.46 287.31 555.58 286.53 555.58 285.49C555.51 269.2 555.52 204.59 555.47 188.54Z" fill="#151011"/>
<path fill-rule="evenodd" clip-rule="evenodd" d="M202.38 258.15C205.03 263.15 208.53 267.15 213.67 269.41C219.2 271.84 224.89 272.68 230.67 270.12C233.102 269.143 235.184 267.459 236.65 265.286C238.115 263.113 238.895 260.551 238.89 257.93C239.12 252.32 236.11 248.56 231.26 246.14C225.67 243.35 219.63 241.69 213.92 239.21C208.21 236.73 203.03 233.99 199.17 229.02C196.89 226.058 195.469 222.526 195.06 218.81C193.06 202.28 202.06 190.46 215.81 186.57C230.15 182.52 243.07 186.08 254.64 195.18C255.49 195.85 255.79 196.32 254.97 197.35C252.017 201.043 249.147 204.79 246.36 208.59C245.51 209.75 245.14 209.42 244.36 208.59C241.22 205.23 237.6 202.51 232.92 201.84C227.01 201 221.42 201.75 217.31 206.65C213.63 211.03 214.45 216.55 219.09 219.84C223.25 222.84 228.09 224.29 232.78 226.1C237.187 227.759 241.465 229.741 245.58 232.03C253.97 236.78 258.58 243.75 259.18 253.53C260.18 270.03 251.52 283.96 235.36 288.11C218.12 292.54 201.28 287.63 190.22 271.31C189.77 270.64 189.72 270.24 190.35 269.65C194.36 265.93 198.33 262.05 202.38 258.15Z" fill="#151011"/>
<path fill-rule="evenodd" clip-rule="evenodd" d="M450 186.58C456.83 186.58 463.36 186.63 469.88 186.58C470.389 186.513 470.904 186.639 471.324 186.933C471.745 187.228 472.039 187.669 472.15 188.17C478.15 203.37 495.46 246.91 498.15 253.63C499.37 252.29 516.66 208.43 524.81 188.1C525.13 187.29 525.37 186.57 526.55 186.59C533.21 186.64 539.86 186.59 546.8 186.59C545.22 190.4 516.71 258.05 504.02 288.26C503.898 288.76 503.593 289.195 503.165 289.481C502.737 289.766 502.218 289.88 501.71 289.8C499.18 289.7 496.65 289.71 494.12 289.8C493.667 289.863 493.207 289.755 492.828 289.499C492.449 289.242 492.179 288.854 492.07 288.41C484.25 269.41 456.81 203.16 450.95 188.97C450.63 188.23 450.37 187.49 450 186.58Z" fill="#151011"/>
<path fill-rule="evenodd" clip-rule="evenodd" d="M343 213.8C339.29 210.25 335.73 207.27 331.48 205.3C327.457 203.479 323.101 202.511 318.685 202.456C314.27 202.401 309.891 203.261 305.824 204.98C301.756 206.7 298.089 209.243 295.053 212.449C292.016 215.656 289.676 219.455 288.18 223.61C283.18 237.27 284.87 250.26 294.84 261.36C301.51 268.78 310.33 271.48 320.15 271.36C327.95 271.28 334.4 268.11 340.1 263.07C340.94 262.33 341.76 261.55 342.57 260.8C343.28 261.19 342.99 261.8 342.99 262.26C342.99 268.85 342.99 275.45 342.99 282.04C343.054 282.483 342.967 282.934 342.744 283.322C342.522 283.71 342.175 284.012 341.76 284.18C321.54 293.93 296 290.07 280.19 273.93C270.42 263.93 265.6 251.84 265.3 237.85C265.117 226.473 268.649 215.346 275.36 206.157C282.072 196.968 291.596 190.218 302.49 186.93C315.95 182.86 329.09 183.64 341.77 190C342.45 190.34 342.98 190.64 342.98 191.58C342.94 198.8 343 206.05 343 213.8Z" fill="#151011"/>
<path fill-rule="evenodd" clip-rule="evenodd" d="M182.42 285.04C182.42 286.69 182.18 287.35 180.29 287.29C174.97 287.13 169.63 287.2 164.29 287.29C163 287.29 162.6 286.97 162.61 285.63C162.61 253.19 162.61 220.75 162.61 188.31C162.61 186.84 163.09 186.56 164.43 186.57C169.69 186.64 174.96 186.68 180.22 186.57C181.96 186.57 182.44 186.95 182.43 188.74C182.36 204.83 182.36 269.05 182.42 285.04Z" fill="#151011"/>
<path fill-rule="evenodd" clip-rule="evenodd" d="M701.3 185.93C699.76 185.916 698.251 186.36 696.964 187.205C695.677 188.051 694.671 189.259 694.072 190.678C693.473 192.096 693.309 193.661 693.601 195.172C693.893 196.684 694.627 198.075 695.711 199.169C696.795 200.263 698.179 201.01 699.688 201.315C701.197 201.621 702.763 201.471 704.187 200.885C705.611 200.299 706.829 199.303 707.685 198.024C708.542 196.745 709 195.24 709 193.7C709.008 191.649 708.201 189.679 706.758 188.222C705.314 186.765 703.351 185.941 701.3 185.93V185.93ZM701.3 200.03C700.035 200.084 698.784 199.758 697.706 199.095C696.628 198.431 695.774 197.46 695.253 196.307C694.731 195.154 694.567 193.871 694.781 192.623C694.995 191.376 695.578 190.221 696.454 189.308C697.33 188.394 698.459 187.764 699.696 187.498C700.934 187.231 702.222 187.342 703.397 187.814C704.571 188.286 705.577 189.1 706.285 190.149C706.993 191.197 707.371 192.434 707.37 193.7C707.394 195.338 706.769 196.918 705.632 198.097C704.495 199.275 702.937 199.956 701.3 199.99V200.03Z" fill="#161112"/>
<path fill-rule="evenodd" clip-rule="evenodd" d="M702 194.45L704.85 198.26H704.47C703.93 198.26 703.4 198.26 702.86 198.26C702.795 198.264 702.73 198.249 702.674 198.217C702.617 198.185 702.57 198.138 702.54 198.08L700.3 194.75V194.7C700.3 194.59 700.16 194.6 700.07 194.62C699.98 194.64 700.07 194.72 700.07 194.78V198.05C700.07 198.23 700.02 198.26 699.85 198.26H698.45C698.33 198.26 698.28 198.26 698.28 198.1C698.28 195.17 698.28 192.24 698.28 189.32C698.28 189.22 698.28 189.16 698.42 189.16C699.42 189.16 700.42 189.16 701.42 189.16C702.117 189.177 702.787 189.431 703.32 189.88C703.612 190.151 703.836 190.486 703.973 190.86C704.111 191.234 704.158 191.635 704.11 192.03C704.111 192.58 703.921 193.113 703.573 193.538C703.224 193.963 702.739 194.253 702.2 194.36L702 194.45ZM700 191.99C700 192.39 700 192.8 700 193.2C700 193.34 700 193.37 700.17 193.36C700.34 193.35 700.69 193.36 700.96 193.36C701.128 193.357 701.294 193.322 701.448 193.255C701.603 193.188 701.742 193.092 701.859 192.971C701.976 192.85 702.068 192.708 702.13 192.551C702.192 192.395 702.223 192.228 702.22 192.06C702.257 191.777 702.19 191.491 702.032 191.254C701.874 191.017 701.635 190.845 701.36 190.77C700.972 190.671 700.57 190.63 700.17 190.65C700.04 190.65 699.99 190.65 700 190.81C700 191.19 700 191.59 700 191.99Z" fill="#151011"/>
<path d="M402.41 290.32C431.792 290.32 455.61 266.417 455.61 236.93C455.61 207.444 431.792 183.54 402.41 183.54C373.028 183.54 349.21 207.444 349.21 236.93C349.21 266.417 373.028 290.32 402.41 290.32Z" fill="url(#paint0_linear_405_62)"/>
</g>
<defs>
<linearGradient id="paint0_linear_405_62" x1="379.86" y1="188.57" x2="424.96" y2="285.3" gradientUnits="userSpaceOnUse">
<stop offset="0.38" stop-color="#EF3803"/>
<stop offset="1" stop-color="#FF9209"/>
</linearGradient>
<clipPath id="clip0_405_62">
<rect width="638" height="137.44" fill="white" transform="translate(71 181)"/>
</clipPath>
</defs>
</svg>
