<svg version="1.1" id="Layer_1" xmlns="http://www.w3.org/2000/svg" xmlns:xlink="http://www.w3.org/1999/xlink" x="0px" y="0px"
	 viewBox="0 0 72.6 89.7" style="enable-background:new 0 0 72.6 89.7;" xml:space="preserve">
<path fill="currentColor" d="M63,1L63,1c-5.1,0-9.2,4.1-9.2,9.2v75.9c0,0.9,0.8,1.7,1.7,1.7l0,0c9.2,0,16.7-7.5,16.7-16.7V10.2
	C72.2,5.1,68.1,1,63,1z"/>
<path fill="currentColor" d="M35.8,23.7L35.8,23.7c-5.1,0-9.2,4.1-9.2,9.2v53.2c0,0.9,0.8,1.7,1.7,1.7l0,0c9.2,0,16.7-7.5,16.7-16.7V32.9
	C45,27.8,40.9,23.7,35.8,23.7z"/>
<path fill="currentColor" d="M9.6,48.7L9.6,48.7c-5.1,0-9.2,4.1-9.2,9.2v28.2c0,0.9,0.8,1.7,1.7,1.7l0,0c9.2,0,16.7-7.5,16.7-16.7V57.9
	C18.8,52.8,14.7,48.7,9.6,48.7z"/>
</svg>
