<svg width="780" height="500" viewBox="0 0 780 500" fill="none" xmlns="http://www.w3.org/2000/svg">
<path d="M780 0H0V499.999H780V0Z" fill="black"/>
<path d="M461.59 110.176H318.731V368.879H461.59V110.176Z" fill="#FF5F00"/>
<path d="M327.803 239.528C327.78 214.613 333.383 190.019 344.187 167.609C354.99 145.198 370.712 125.558 390.161 110.176C366.076 91.0984 337.15 79.2342 306.69 75.9397C276.23 72.6451 245.465 78.053 217.911 91.5454C190.357 105.038 167.125 126.07 150.872 152.239C134.619 178.408 126 208.656 126 239.528C126 270.399 134.619 300.648 150.872 326.816C167.125 352.985 190.357 374.018 217.911 387.51C245.465 401.002 276.23 406.41 306.69 403.116C337.15 399.821 366.076 387.957 390.161 368.879C370.712 353.497 354.991 333.857 344.187 311.447C333.383 289.036 327.78 264.443 327.803 239.528V239.528Z" fill="#EB001B"/>
<path d="M654.314 239.528C654.315 270.399 645.697 300.647 629.445 326.816C613.193 352.984 589.962 374.017 562.409 387.51C534.855 401.002 504.09 406.41 473.63 403.116C443.171 399.821 414.246 387.957 390.161 368.879C409.593 353.481 425.303 333.838 436.105 311.432C446.907 289.025 452.519 264.439 452.519 239.528C452.519 214.617 446.907 190.031 436.105 167.624C425.303 145.217 409.593 125.574 390.161 110.176C414.246 91.0983 443.171 79.2341 473.63 75.9396C504.09 72.6451 534.855 78.0532 562.409 91.5458C589.962 105.038 613.193 126.071 629.445 152.24C645.697 178.408 654.315 208.657 654.314 239.528V239.528Z" fill="#F79E1B"/>
<path d="M638.738 341.479V336.182H640.857V335.103H635.459V336.182H637.58V341.479H638.738ZM649.216 341.479V335.093H647.562L645.659 339.485L643.755 335.093H642.1V341.479H643.268V336.662L645.053 340.815H646.264L648.049 336.651V341.479H649.216Z" fill="#F79E1B"/>
</svg>
