<svg width="780" height="500" viewBox="0 0 780 500" fill="none" xmlns="http://www.w3.org/2000/svg">
<rect width="780" height="500" fill="white"/>
<path d="M224.578 73.0015H352.765C370.659 73.0015 381.788 89.0568 377.614 108.82L317.933 390.882C313.722 410.576 295.806 426.645 277.9 426.645H149.725C131.856 426.645 120.702 410.576 124.876 390.882L184.581 108.82C188.756 89.0568 206.662 73.0015 224.578 73.0015" fill="#DD2423"/>
<path d="M342.099 73.0015H489.511C507.401 73.0015 499.334 89.0568 495.125 108.82L435.454 390.882C431.268 410.576 432.574 426.645 414.646 426.645H267.233C249.305 426.645 238.21 410.576 242.422 390.882L302.09 108.82C306.327 89.0568 324.196 73.0015 342.099 73.0015" fill="#16315E"/>
<path d="M483.664 73.0015H611.851C629.77 73.0015 640.899 89.0568 636.69 108.82L577.02 390.882C572.808 410.576 554.88 426.645 536.964 426.645H408.836C390.908 426.645 379.788 410.576 383.987 390.882L443.668 108.82C447.842 89.0568 465.736 73.0015 483.664 73.0015" fill="#036862"/>
<path d="M258.056 163.394C244.873 163.542 240.98 163.394 239.737 163.071C239.259 165.571 230.363 210.742 230.338 210.78C228.423 219.918 227.03 226.432 222.296 230.639C219.609 233.084 216.472 234.264 212.835 234.264C206.989 234.264 203.584 231.069 203.012 225.008L202.903 222.928C202.903 222.928 204.684 210.687 204.684 210.618C204.684 210.618 214.019 169.455 215.691 164.013C215.778 163.704 215.803 163.542 215.825 163.394C197.653 163.57 194.432 163.394 194.21 163.071C194.088 163.515 193.639 166.067 193.639 166.067L184.106 212.461L183.287 216.396L181.703 229.267C181.703 233.084 182.384 236.2 183.74 238.835C188.083 247.189 200.472 248.441 207.48 248.441C216.51 248.441 224.98 246.33 230.704 242.474C240.64 236.011 243.239 225.91 245.558 216.933L246.633 212.327C246.633 212.327 256.25 169.575 257.884 164.013C257.946 163.704 257.971 163.542 258.056 163.394V163.394ZM290.777 197.883C288.459 197.883 284.222 198.502 280.416 200.555C279.035 201.336 277.729 202.237 276.351 203.135L277.595 198.193L276.914 197.36C268.843 199.159 267.037 199.4 259.583 200.555L258.958 201.013C258.092 208.913 257.324 214.853 254.115 230.382C252.893 236.106 251.625 241.884 250.353 247.593L250.697 248.319C258.336 247.875 260.654 247.875 267.294 247.996L267.831 247.352C268.675 242.596 268.784 241.481 270.652 231.847C271.53 227.28 273.361 217.244 274.264 213.67C275.923 212.824 277.561 211.992 279.123 211.992C282.844 211.992 282.391 215.565 282.247 216.989C282.088 219.379 280.732 227.187 279.342 233.891L278.414 238.217C277.767 241.413 277.058 244.518 276.411 247.686L276.692 248.319C284.222 247.875 286.518 247.875 292.949 247.996L293.705 247.352C294.867 239.923 295.208 237.935 297.27 227.118L298.307 222.148C300.322 212.421 301.335 207.489 299.81 203.472C298.198 198.97 294.33 197.883 290.777 197.883V197.883ZM327.331 208.067C323.328 208.913 320.776 209.477 318.239 209.842C315.723 210.285 313.271 210.688 309.403 211.279L309.096 211.585L308.815 211.83C308.412 215.001 308.131 217.742 307.597 220.965C307.144 224.298 306.447 228.084 305.313 233.526C304.435 237.691 303.982 239.142 303.482 240.607C302.994 242.073 302.457 243.497 301.47 247.593L301.701 247.971L301.895 248.319C305.51 248.129 307.875 247.995 310.306 247.971C312.733 247.875 315.249 247.971 319.142 247.995L319.482 247.689L319.848 247.352C320.41 243.658 320.495 242.664 320.838 240.862C321.179 238.929 321.766 236.253 323.207 229.106C323.888 225.749 324.647 222.402 325.353 218.977C326.087 215.565 326.856 212.204 327.587 208.848L327.478 208.442L327.331 208.067ZM327.416 194.336C323.779 191.973 317.396 192.723 313.1 195.987C308.816 199.185 308.329 203.726 311.953 206.119C315.528 208.417 321.936 207.733 326.194 204.441C330.469 201.173 331.003 196.675 327.416 194.336V194.336ZM349.411 249.059C356.769 249.059 364.311 246.827 369.988 240.203C374.356 234.83 376.359 226.837 377.053 223.545C379.312 212.635 377.553 207.542 375.344 204.439C371.988 199.71 366.058 198.193 359.906 198.193C356.206 198.193 347.395 198.596 340.512 205.581C335.569 210.62 333.285 217.458 331.908 224.013C330.517 230.693 328.917 242.717 338.963 247.192C342.062 248.657 346.53 249.059 349.411 249.059V249.059ZM348.836 224.512C350.532 216.25 352.535 209.316 357.647 209.316C361.652 209.316 361.943 214.476 360.162 222.765C359.843 224.605 358.381 231.446 356.403 234.359C355.022 236.509 353.388 237.812 351.582 237.812C351.045 237.812 347.849 237.812 347.799 232.588C347.774 230.008 348.252 227.373 348.836 224.512ZM395.447 247.997L396.021 247.354C396.837 242.597 396.971 241.479 398.777 231.849C399.68 227.281 401.549 217.245 402.427 213.671C404.089 212.822 405.698 211.989 407.31 211.989C411.006 211.989 410.556 215.563 410.41 216.987C410.275 219.381 408.919 227.185 407.504 233.888L406.626 238.215C405.954 241.414 405.223 244.516 404.576 247.687L404.857 248.32C412.412 247.876 414.621 247.876 421.089 247.997L421.87 247.354C423.004 239.921 423.311 237.933 425.435 227.119L426.447 222.146C428.472 212.419 429.497 207.49 427.997 203.473C426.338 198.971 422.445 197.884 418.943 197.884C416.621 197.884 412.362 198.5 408.579 200.556C407.226 201.337 405.87 202.235 404.539 203.136L405.698 198.194L405.076 197.358C397.009 199.16 395.165 199.401 387.72 200.556L387.148 201.014C386.245 208.914 385.511 214.851 382.302 230.383C381.08 236.107 379.812 241.885 378.543 247.594L378.884 248.32C386.536 247.876 388.82 247.876 395.447 247.997V247.997ZM450.954 248.318C451.429 245.766 454.251 230.64 454.276 230.64C454.276 230.64 456.678 219.54 456.825 219.138C456.825 219.138 457.581 217.982 458.337 217.525H459.45C469.945 217.525 481.796 217.525 491.085 210.003C497.406 204.844 501.727 197.225 503.655 187.966C504.154 185.696 504.523 182.996 504.523 180.296C504.523 176.75 503.876 173.242 502.008 170.501C497.271 163.206 487.838 163.072 476.95 163.017C476.915 163.017 471.582 163.072 471.582 163.072C457.644 163.261 452.054 163.206 449.758 162.896C449.564 164.014 449.198 166.002 449.198 166.002C449.198 166.002 444.205 191.475 444.205 191.516C444.205 191.516 432.257 245.673 431.695 248.225C443.865 248.064 448.855 248.064 450.954 248.318V248.318ZM460.206 203.069C460.206 203.069 465.514 177.648 465.489 177.744L465.661 176.441L465.736 175.447L467.858 175.688C467.858 175.688 478.806 176.723 479.062 176.75C483.383 178.59 485.164 183.333 483.92 189.524C482.786 195.182 479.452 199.939 475.169 202.237C471.641 204.183 467.32 204.345 462.868 204.345H459.987L460.206 203.069ZM493.258 224.983C491.855 231.566 490.242 243.59 500.238 247.876C503.425 249.368 506.28 249.812 509.183 249.65C512.248 249.468 515.088 247.776 517.719 245.341C517.481 246.342 517.244 247.343 517.007 248.347L517.46 248.99C524.649 248.656 526.88 248.656 534.669 248.722L535.375 248.13C536.513 240.77 537.584 233.623 540.54 219.541C541.98 212.797 543.418 206.117 544.896 199.4L544.664 198.661C536.622 200.301 534.472 200.652 526.736 201.859L526.149 202.386C526.071 203.07 525.989 203.727 525.914 204.384C524.711 202.245 522.968 200.418 520.278 199.28C516.838 197.79 508.758 199.71 501.812 206.671C496.932 211.641 494.589 218.451 493.258 224.983V224.983ZM510.148 225.385C511.87 217.271 513.848 210.406 518.972 210.406C522.212 210.406 523.918 213.698 523.571 219.311C523.296 220.711 522.999 222.186 522.646 223.855C522.134 226.266 521.578 228.656 521.037 231.05C520.487 232.687 519.847 234.231 519.144 235.26C517.825 237.317 514.688 238.593 512.882 238.593C512.37 238.593 509.208 238.593 509.099 233.461C509.074 230.905 509.552 228.274 510.148 225.385ZM598.353 198.595L597.732 197.814C589.774 199.589 588.333 199.871 581.022 200.958L580.485 201.549C580.46 201.646 580.438 201.794 580.4 201.928L580.375 201.794C574.933 215.617 575.092 212.635 570.661 223.517C570.636 223.022 570.636 222.712 570.611 222.186L569.502 198.595L568.805 197.814C560.469 199.589 560.273 199.871 552.574 200.958L551.974 201.549C551.89 201.831 551.89 202.141 551.84 202.478L551.89 202.598C552.852 208.012 552.621 206.805 553.586 215.348C554.036 219.541 554.636 223.758 555.086 227.899C555.845 234.829 556.27 238.241 557.198 248.818C551.999 258.262 550.768 261.836 545.763 270.125L545.797 270.208L542.273 276.344C541.869 276.99 541.504 277.434 540.992 277.623C540.429 277.929 539.698 277.984 538.683 277.984H536.73L533.827 288.612L543.785 288.801C549.631 288.774 553.305 285.764 555.283 281.719L561.544 269.908H561.444L562.103 269.076C566.315 259.095 598.353 198.595 598.353 198.595V198.595ZM493.257 338.176H489.033L504.668 281.25H509.854L511.501 275.386L511.66 281.907C511.467 285.938 514.347 289.511 521.915 288.92H530.666L533.678 277.958H530.385C528.492 277.958 527.614 277.432 527.723 276.304L527.564 269.669H511.357V269.704C506.117 269.824 490.47 270.257 487.302 271.186C483.468 272.273 479.428 275.472 479.428 275.472L481.016 269.601H465.856L462.697 281.25L446.853 339.046H443.778L440.763 349.929H470.958L469.946 353.557H484.824L485.812 349.929H489.986L493.257 338.176ZM480.869 292.817C478.441 293.556 473.923 295.799 473.923 295.799L477.941 281.25H489.986L487.08 291.85C487.08 291.85 483.359 292.091 480.869 292.817ZM481.1 313.601C481.1 313.601 477.316 314.124 474.826 314.743C472.373 315.562 467.774 318.141 467.774 318.141L471.923 303.001H484.031L481.1 313.601ZM474.351 338.31H462.269L465.771 325.533H477.816L474.351 338.31ZM503.448 303.001H520.864L518.361 311.923H500.714L498.065 321.677H513.506L501.814 339.8C500.995 341.131 500.261 341.602 499.446 341.977C498.627 342.434 497.552 342.971 496.309 342.971H492.025L489.082 353.654H500.286C506.11 353.654 509.55 350.737 512.09 346.909L520.108 334.83L521.829 347.095C522.195 349.392 523.694 350.737 524.71 351.26C525.832 351.879 526.991 352.942 528.628 353.1C530.384 353.183 531.652 353.248 532.496 353.248H538.001L541.307 341.292H539.136C537.889 341.292 535.742 341.062 535.377 340.632C535.011 340.109 535.011 339.304 534.814 338.08L533.068 325.787H525.916L529.053 321.677H546.666L549.374 311.923H533.068L535.608 303.001H551.865L554.88 291.998H506.413L503.448 303.001ZM356.354 340.795L360.419 325.909H377.125L380.178 314.837H363.456L366.009 305.674H382.349L385.377 294.954H344.49L341.525 305.674H350.814L348.337 314.837H339.023L335.936 326.098H345.221L339.804 345.792C339.073 348.399 340.147 349.393 340.828 350.604C341.525 351.784 342.231 352.564 343.819 353.008C345.456 353.411 346.578 353.651 348.102 353.651H366.937L370.292 341.386L361.944 342.649C360.331 342.649 355.867 342.435 356.354 340.795V340.795ZM358.27 269.533L354.037 277.957C353.13 279.797 352.315 280.939 351.581 281.465C350.934 281.909 349.653 282.094 347.797 282.094H345.588L342.635 292.87H349.972C353.499 292.87 356.208 291.446 357.502 290.734C358.892 289.916 359.258 290.383 360.332 289.242L362.81 286.879H385.719L388.759 275.659H371.99L374.917 269.533H358.27ZM392.091 341.011C391.7 340.392 391.981 339.302 392.578 337.032L398.839 314.218H421.114C424.36 314.166 426.703 314.125 428.228 314.004C429.865 313.815 431.646 313.172 433.587 312.016C435.589 310.806 436.614 309.53 437.48 308.065C438.445 306.603 439.995 303.404 441.326 298.472L449.196 269.601L426.082 269.749C426.082 269.749 418.964 270.905 415.83 272.181C412.668 273.605 408.15 277.581 408.15 277.581L410.237 269.667H395.959L375.968 342.648C375.259 345.482 374.784 347.539 374.675 348.774C374.637 350.105 376.2 351.422 377.212 352.416C378.409 353.41 380.177 353.249 381.874 353.41C383.658 353.558 386.195 353.651 389.697 353.651H400.67L404.039 341.131L394.215 342.153C393.165 342.153 392.406 341.534 392.091 341.011ZM402.879 298.809H426.275L424.788 303.941C424.579 304.061 424.079 303.686 421.698 303.996H401.439L402.879 298.809ZM407.566 281.598H431.159L429.462 287.779C429.462 287.779 418.342 287.658 416.561 288.019C408.725 289.512 404.148 294.121 404.148 294.121L407.566 281.598ZM425.312 321.125C425.118 321.892 424.812 322.36 424.384 322.711C423.909 323.048 423.14 323.168 421.994 323.168H418.66L418.857 316.919H404.99L404.428 347.471C404.406 349.676 404.6 350.952 406.065 351.974C407.53 353.25 412.045 353.411 418.122 353.411H426.811L429.948 341.975L422.384 342.433L419.869 342.594C419.525 342.433 419.197 342.285 418.832 341.882C418.513 341.535 417.976 341.748 418.063 339.543L418.122 331.712L426.055 331.351C430.339 331.351 432.17 329.817 433.732 328.355C435.223 326.955 435.71 325.345 436.272 323.168L437.603 316.234H426.702L425.312 321.125Z" fill="#FEFEFE"/>
</svg>
