<svg width="28" height="29" viewBox="0 0 28 29" fill="none" xmlns="http://www.w3.org/2000/svg">
<g clip-path="url(#clip0_8321_140419)">
<path d="M0 13.4042C0.0708731 12.8731 0.113251 12.336 0.217734 11.8116C1.29252 6.41795 4.35687 2.69498 9.43562 0.841297C13.4666 -0.630041 17.3968 -0.13166 21.1187 2.02477C21.1648 2.05154 21.2108 2.07609 21.3109 2.13188C21.2495 1.75921 21.1998 1.43638 21.1436 1.11429C21.0493 0.577974 21.3255 0.130919 21.807 0.0498395C22.2695 -0.0282649 22.6648 0.29531 22.7576 0.827908C22.9286 1.81351 23.0995 2.79911 23.2712 3.78472C23.3604 4.29574 23.0915 4.72495 22.5968 4.81718C21.5761 5.00835 20.5539 5.1906 19.531 5.36615C19.1036 5.43979 18.6849 5.12067 18.6068 4.68627C18.5264 4.24367 18.8216 3.81224 19.2716 3.71926C19.4412 3.6843 19.6121 3.65752 19.7824 3.62702C19.9526 3.59652 20.1221 3.56528 20.3647 3.52139C20.2295 3.43659 20.1448 3.37857 20.0564 3.32799C12.7265 -0.845758 3.54512 3.44403 1.88727 11.8287C1.7426 12.5607 1.70096 13.3172 1.65054 14.0647C1.60889 14.674 1.44961 14.9812 1.01707 15.1017C0.618861 15.2133 0.30322 15.031 0 14.5177C0 14.1466 0 13.7754 0 13.4042Z" fill="#334155"/>
<path d="M5.85176 28.5496C5.43529 28.3621 5.26944 28.0177 5.20149 27.5744C5.05901 26.6401 4.88584 25.7118 4.72583 24.7805C4.64181 24.2918 4.91945 23.864 5.40314 23.7733C6.42386 23.5821 7.44604 23.4006 8.46896 23.2236C8.89712 23.1499 9.31432 23.4638 9.39615 23.899C9.47652 24.3275 9.19888 24.7634 8.76195 24.863C8.41635 24.9419 8.06418 24.9932 7.66086 25.0668C7.75511 25.133 7.81283 25.1807 7.8764 25.2171C10.0618 26.4697 12.4064 27.0686 14.9075 26.8268C19.786 26.3552 23.2537 23.803 25.328 19.2998C26.0411 17.7526 26.3429 16.0953 26.3575 14.3874C26.3604 14.0229 26.4817 13.7335 26.8046 13.5587C27.3629 13.2567 28 13.6681 27.9993 14.3383C27.9971 16.0424 27.7428 17.7109 27.113 19.2886C25.0788 24.3847 21.4029 27.442 16.0626 28.3881C15.6695 28.4581 15.2713 28.4953 14.876 28.5481H13.1809C13.1013 28.5324 13.0216 28.5079 12.9413 28.502C11.4208 28.3904 9.95729 28.0311 8.55956 27.4159C7.93704 27.1414 7.33645 26.8142 6.69567 26.4965C6.74316 26.777 6.78992 27.0462 6.83303 27.3163C6.94263 28.0051 6.86006 28.1895 6.28869 28.5481H5.85103L5.85176 28.5496Z" fill="#334155"/>
<path d="M21.9665 8.88219C21.889 9.08675 21.8459 9.25932 21.7626 9.40883C21.5829 9.73092 21.3754 10.0374 21.1971 10.3602C21.154 10.4391 21.1511 10.57 21.1832 10.6563C21.3104 11.0029 21.4485 11.3466 21.6056 11.6798C21.6509 11.7758 21.7634 11.8717 21.8642 11.9022C22.2127 12.0078 22.5715 12.0778 22.9229 12.173C23.3409 12.2861 23.5681 12.5814 23.571 13.0217C23.5761 13.8757 23.5769 14.7289 23.571 15.5828C23.5681 16.0068 23.3387 16.3043 22.9368 16.4144C22.5766 16.5134 22.2091 16.584 21.8518 16.6926C21.7531 16.7224 21.6487 16.8273 21.6026 16.9247C21.4762 17.191 21.4105 17.49 21.2621 17.7415C21.1051 18.0085 21.1416 18.2056 21.3111 18.4392C21.4835 18.6772 21.626 18.9383 21.7736 19.1942C22.0052 19.5951 21.9701 19.9559 21.653 20.2847C21.0714 20.8865 20.4847 21.4838 19.8944 22.0766C19.5612 22.4106 19.2061 22.4471 18.8013 22.2008C18.5039 22.0201 18.2066 21.8401 17.9209 21.6422C17.7806 21.5448 17.6739 21.5522 17.5256 21.6266C17.2406 21.7687 16.9462 21.8988 16.6444 21.9978C16.442 22.064 16.3558 22.1763 16.3178 22.3801C16.2557 22.7163 16.1739 23.0496 16.087 23.3806C15.9759 23.8061 15.6858 24.0359 15.2525 24.0389C14.4233 24.0441 13.594 24.0434 12.7647 24.0389C12.3153 24.0367 12.0304 23.8083 11.9149 23.3642C11.8243 23.0146 11.7345 22.6643 11.6694 22.3102C11.6373 22.1361 11.5533 22.0662 11.3984 22.0134C11.1317 21.9219 10.8548 21.8349 10.618 21.6876C10.355 21.5239 10.1614 21.5708 9.93341 21.7397C9.69083 21.9189 9.4278 22.0699 9.16769 22.2224C8.79725 22.4396 8.44434 22.4054 8.14112 22.1034C7.53541 21.5001 6.93628 20.8894 6.34299 20.2735C6.03539 19.9544 6.00251 19.5936 6.22682 19.2061C6.4124 18.887 6.61845 18.5798 6.79234 18.2547C6.8413 18.1625 6.84276 18.013 6.80696 17.9111C6.69005 17.5808 6.53515 17.2639 6.41752 16.9336C6.36491 16.7864 6.30061 16.7075 6.14279 16.6755C5.78624 16.6034 5.4326 16.5141 5.08043 16.4189C4.6625 16.3058 4.43672 16.0098 4.4338 15.5694C4.42869 14.7155 4.42796 13.8623 4.4338 13.0083C4.43672 12.5851 4.66615 12.2875 5.06874 12.1782C5.42018 12.083 5.77382 11.9915 6.1311 11.9216C6.30135 11.8881 6.37076 11.8033 6.4219 11.6448C6.51104 11.3733 6.59799 11.0922 6.74266 10.8497C6.90194 10.5834 6.86175 10.3855 6.6937 10.1527C6.51616 9.90721 6.36856 9.63794 6.21805 9.37387C6.00397 8.99674 6.03685 8.6382 6.33422 8.3295C6.92678 7.71285 7.52665 7.10289 8.13163 6.49889C8.44507 6.18573 8.79579 6.15002 9.18011 6.37987C9.50233 6.57178 9.81285 6.78453 10.138 6.97049C10.2154 7.01438 10.3433 7.0181 10.4281 6.98611C10.7685 6.85668 11.1061 6.71609 11.4334 6.55616C11.5284 6.51004 11.6241 6.39623 11.6534 6.29358C11.7564 5.93877 11.8243 5.57354 11.9179 5.21574C12.0289 4.78952 12.3183 4.55892 12.7515 4.55595C13.5903 4.55074 14.4284 4.55 15.2672 4.55595C15.6844 4.55892 15.9759 4.791 16.084 5.20087C16.1805 5.56758 16.2513 5.94174 16.3544 6.30623C16.3814 6.40144 16.4713 6.50856 16.5597 6.55096C16.8885 6.70865 17.2246 6.85222 17.5665 6.97569C17.6652 7.0114 17.8113 6.9995 17.9033 6.94817C18.2146 6.77486 18.5083 6.5703 18.8137 6.38582C19.2076 6.14853 19.5612 6.18424 19.8841 6.50781C20.4818 7.10661 21.0795 7.70541 21.6582 8.32355C21.7999 8.47456 21.8686 8.69771 21.968 8.88367L21.9665 8.88219ZM6.08142 14.9438C6.43944 15.0301 6.78357 15.1134 7.12844 15.1945C7.47842 15.2771 7.6852 15.498 7.81306 15.8417C8.04029 16.4546 8.28433 17.0616 8.54956 17.6581C8.69423 17.9832 8.7103 18.2785 8.52837 18.582C8.37201 18.8431 8.21784 19.1064 8.05125 19.3608C7.96723 19.4888 7.957 19.5788 8.08121 19.6926C8.29748 19.8912 8.50426 20.1024 8.69934 20.3219C8.8104 20.4468 8.89881 20.4402 9.02521 20.3539C9.25171 20.1991 9.4921 20.0645 9.71933 19.9105C10.0671 19.6732 10.3959 19.6956 10.77 19.883C11.2983 20.1478 11.8448 20.3829 12.4023 20.5733C12.7998 20.7094 13.0438 20.9289 13.1293 21.3454C13.1987 21.6861 13.2871 22.0238 13.3645 22.3518H14.6425C14.725 21.9926 14.8054 21.6504 14.8814 21.3067C14.9654 20.9259 15.1985 20.7161 15.5587 20.5845C16.1301 20.3762 16.6956 20.1448 17.2421 19.8771C17.6074 19.6985 17.9282 19.6755 18.2694 19.9016C18.558 20.0928 18.8561 20.2698 19.0987 20.4208C19.418 20.098 19.7124 19.8004 20.0222 19.488C19.8681 19.2336 19.7044 18.945 19.5232 18.6683C19.2843 18.3046 19.3033 17.9654 19.4947 17.5741C19.757 17.0378 19.9806 16.4784 20.1698 15.9116C20.305 15.5069 20.5271 15.2644 20.9377 15.1819C21.2658 15.1157 21.5888 15.0257 21.9183 14.9453V13.6428C21.5646 13.5595 21.2198 13.4777 20.8756 13.3966C20.5264 13.3141 20.3174 13.0954 20.1903 12.751C19.9631 12.138 19.7197 11.5303 19.4538 10.9345C19.3091 10.6094 19.2909 10.3148 19.4735 10.0114C19.6306 9.75026 19.7848 9.48768 19.9506 9.23254C20.0325 9.10609 20.0478 9.01459 19.9236 8.90004C19.7081 8.70069 19.5013 8.48943 19.3047 8.27074C19.1951 8.14875 19.1082 8.14875 18.9796 8.23801C18.7538 8.39422 18.512 8.52588 18.2855 8.6806C17.9267 8.92533 17.5921 8.89037 17.21 8.69622C16.6919 8.43216 16.1512 8.20603 15.6025 8.01857C15.2058 7.88319 14.9588 7.66599 14.8741 7.24794C14.8047 6.90652 14.7163 6.56955 14.6388 6.23928H13.3609C13.2783 6.59782 13.198 6.93999 13.122 7.28365C13.0379 7.66301 12.8071 7.87576 12.4454 8.00667C11.874 8.21421 11.3085 8.44629 10.7612 8.71333C10.3959 8.89111 10.0744 8.9164 9.73321 8.68953C9.4446 8.49836 9.14796 8.31983 8.90612 8.16809C8.58317 8.49241 8.28798 8.78846 7.97819 9.09939C8.13893 9.36495 8.30917 9.66026 8.49257 9.94664C8.71468 10.2933 8.69496 10.6206 8.5196 10.9932C8.2573 11.5496 8.0286 12.1254 7.82475 12.7071C7.69543 13.0738 7.49084 13.3126 7.11748 13.3996C6.77335 13.4799 6.43067 13.564 6.08142 13.648V14.9431V14.9438Z" fill="#334155"/>
<path d="M14.0041 9.5625C16.5629 9.56324 18.6481 11.6855 18.6503 14.2904C18.6525 16.9065 16.557 19.034 13.9858 19.028C11.4308 19.0221 9.34987 16.8917 9.35352 14.286C9.35717 11.6825 11.4454 9.56176 14.0041 9.5625ZM17.0085 14.2882C17.0049 12.6041 15.6495 11.2302 13.9946 11.2339C12.3412 11.2369 10.9909 12.6175 10.9938 14.3023C10.9968 15.9849 12.3543 17.361 14.0078 17.3573C15.6612 17.3536 17.0115 15.9723 17.0085 14.2882Z" fill="#334155"/>
</g>
<defs>
<clipPath id="clip0_8321_140419">
<rect width="28" height="28.549" fill="white"/>
</clipPath>
</defs>
</svg>
