<svg width="22" height="22" viewBox="0 0 22 22" fill="none" xmlns="http://www.w3.org/2000/svg">
<path d="M11.0004 16.4004V10.4004M18.6804 16.7604C17.62 16.7604 16.7604 17.62 16.7604 18.6804C16.7604 19.7408 17.62 20.6004 18.6804 20.6004C19.7408 20.6004 20.6004 19.7408 20.6004 18.6804C20.6004 17.62 19.7408 16.7604 18.6804 16.7604ZM18.6804 16.7604L18.6804 11.2404C18.6804 10.7102 18.2506 10.2804 17.7204 10.2804H4.28039C3.7502 10.2804 3.32039 10.7102 3.32039 11.2404L3.32039 16.7604M3.32039 16.7604C2.26 16.7604 1.40039 17.62 1.40039 18.6804C1.40039 19.7408 2.26 20.6004 3.32039 20.6004C4.38078 20.6004 5.24039 19.7408 5.24039 18.6804C5.24039 17.62 4.38078 16.7604 3.32039 16.7604ZM11.0004 20.6004C9.94 20.6004 9.08039 19.7408 9.08039 18.6804C9.08039 17.62 9.94 16.7604 11.0004 16.7604C12.0608 16.7604 12.9204 17.62 12.9204 18.6804C12.9204 19.7408 12.0608 20.6004 11.0004 20.6004ZM5.00039 6.20039H17.0004C17.6631 6.20039 18.2004 5.66313 18.2004 5.00039V2.60039C18.2004 1.93765 17.6631 1.40039 17.0004 1.40039H5.00039C4.33765 1.40039 3.80039 1.93765 3.80039 2.60039V5.00039C3.80039 5.66313 4.33765 6.20039 5.00039 6.20039Z" stroke="#334155" stroke-width="2" stroke-linecap="round"/>
</svg>
