<svg width="28" height="28" viewBox="0 0 28 28" fill="none" xmlns="http://www.w3.org/2000/svg">
<path d="M19.8333 10.4997V8.16634C19.8333 7.5475 19.5875 6.95401 19.1499 6.51643C18.7123 6.07884 18.1188 5.83301 17.5 5.83301H5.83333C5.2145 5.83301 4.621 6.07884 4.18342 6.51643C3.74583 6.95401 3.5 7.5475 3.5 8.16634V15.1663C3.5 15.7852 3.74583 16.3787 4.18342 16.8163C4.621 17.2538 5.2145 17.4997 5.83333 17.4997H8.16667M10.5 10.4997H22.1667C23.4553 10.4997 24.5 11.5443 24.5 12.833V19.833C24.5 21.1217 23.4553 22.1663 22.1667 22.1663H10.5C9.21134 22.1663 8.16667 21.1217 8.16667 19.833V12.833C8.16667 11.5443 9.21134 10.4997 10.5 10.4997ZM18.6667 16.333C18.6667 17.6217 17.622 18.6663 16.3333 18.6663C15.0447 18.6663 14 17.6217 14 16.333C14 15.0443 15.0447 13.9997 16.3333 13.9997C17.622 13.9997 18.6667 15.0443 18.6667 16.333Z" stroke="#334155" stroke-width="2" stroke-linecap="round" stroke-linejoin="round"/>
</svg>
