<svg width="22" height="22" viewBox="0 0 22 22" fill="none" xmlns="http://www.w3.org/2000/svg">
<path d="M8.12039 8.12039V7.12039C7.5681 7.12039 7.12039 7.5681 7.12039 8.12039H8.12039ZM8.21601 8.12039H9.21601C9.21601 7.5681 8.7683 7.12039 8.21601 7.12039V8.12039ZM13.8804 8.12039V7.12039C13.3281 7.12039 12.8804 7.5681 12.8804 8.12039H13.8804ZM13.9654 8.12039H14.9654C14.9654 7.5681 14.5177 7.12039 13.9654 7.12039V8.12039ZM8.21601 8.19726V9.19726C8.7683 9.19726 9.21601 8.74955 9.21601 8.19726H8.21601ZM8.12039 8.19726H7.12039C7.12039 8.74955 7.5681 9.19726 8.12039 9.19726V8.19726ZM13.9654 8.19726V9.19726C14.5177 9.19726 14.9654 8.74955 14.9654 8.19726H13.9654ZM13.8804 8.19726H12.8804C12.8804 8.74955 13.3281 9.19726 13.8804 9.19726V8.19726ZM8.52262 13.3932C8.23194 12.9236 7.61561 12.7786 7.14601 13.0693C6.67642 13.3599 6.53138 13.9763 6.82206 14.4459L8.52262 13.3932ZM15.1787 14.4459C15.4694 13.9763 15.3244 13.3599 14.8548 13.0693C14.3852 12.7786 13.7688 12.9236 13.4782 13.3932L15.1787 14.4459ZM19.6004 11.0004C19.6004 15.75 15.75 19.6004 11.0004 19.6004V21.6004C16.8546 21.6004 21.6004 16.8546 21.6004 11.0004H19.6004ZM11.0004 19.6004C6.25074 19.6004 2.40039 15.75 2.40039 11.0004H0.400391C0.400391 16.8546 5.14617 21.6004 11.0004 21.6004V19.6004ZM2.40039 11.0004C2.40039 6.25074 6.25074 2.40039 11.0004 2.40039V0.400391C5.14617 0.400391 0.400391 5.14617 0.400391 11.0004H2.40039ZM11.0004 2.40039C15.75 2.40039 19.6004 6.25074 19.6004 11.0004H21.6004C21.6004 5.14617 16.8546 0.400391 11.0004 0.400391V2.40039ZM8.12039 9.12039H8.21601V7.12039H8.12039V9.12039ZM13.8804 9.12039H13.9654V7.12039H13.8804V9.12039ZM7.21601 8.12039V8.19726H9.21601V8.12039H7.21601ZM8.21601 7.19726H8.12039V9.19726H8.21601V7.19726ZM9.12039 8.19726V8.12039H7.12039V8.19726H9.12039ZM12.9654 8.12039V8.19726H14.9654V8.12039H12.9654ZM13.9654 7.19726H13.8804V9.19726H13.9654V7.19726ZM14.8804 8.19726V8.12039H12.8804V8.19726H14.8804ZM11.0004 14.8003C9.97061 14.8003 9.05275 14.2496 8.52262 13.3932L6.82206 14.4459C7.69181 15.851 9.23186 16.8003 11.0004 16.8003V14.8003ZM13.4782 13.3932C12.948 14.2496 12.0302 14.8003 11.0004 14.8003V16.8003C12.7689 16.8003 14.309 15.851 15.1787 14.4459L13.4782 13.3932Z" fill="#334155"/>
</svg>
