<svg width="238" height="40" viewBox="0 0 238 40" fill="none" xmlns="http://www.w3.org/2000/svg">
<g clip-path="url(#clip0_1930_33276)">
<path d="M43.1162 26.9764L44.5277 24.944C45.1753 25.6764 46.0369 26.2928 47.1122 26.7933C48.1876 27.2938 49.318 27.5441 50.5034 27.5441C51.8598 27.5441 52.9169 27.2572 53.6745 26.6835C54.4444 26.1097 54.8293 25.359 54.8293 24.4313C54.8293 23.8453 54.6216 23.351 54.2061 22.9481C53.7906 22.5453 53.2529 22.234 52.593 22.0143C51.9331 21.7946 51.206 21.5931 50.4117 21.41C49.6174 21.2269 48.817 21.0133 48.0104 20.7692C47.2161 20.525 46.489 20.226 45.8291 19.8719C45.1692 19.5179 44.6315 19.0175 44.216 18.3705C43.8005 17.7113 43.5928 16.9301 43.5928 16.0267C43.5928 14.5375 44.1916 13.2985 45.3892 12.3097C46.5868 11.3087 48.2304 10.8082 50.3201 10.8082C53.0818 10.8082 55.3181 11.6871 57.029 13.4449L55.7275 15.3859C55.1654 14.7023 54.4077 14.153 53.4545 13.7379C52.5136 13.3107 51.4688 13.097 50.3201 13.097C49.1102 13.097 48.1387 13.3717 47.4055 13.921C46.6723 14.4581 46.3057 15.1356 46.3057 15.9535C46.3057 16.4784 46.5134 16.924 46.9289 17.2902C47.3444 17.6442 47.876 17.9249 48.5237 18.1324C49.1836 18.3278 49.9107 18.517 50.705 18.7001C51.5115 18.871 52.312 19.0846 53.1063 19.3409C53.9128 19.5973 54.6399 19.9147 55.2876 20.2931C55.9475 20.6593 56.4852 21.1903 56.9007 21.8861C57.3161 22.5819 57.5239 23.4059 57.5239 24.358C57.5239 25.9449 56.9007 27.2572 55.6542 28.2948C54.4199 29.3202 52.6786 29.8329 50.43 29.8329C47.3872 29.8329 44.9492 28.8807 43.1162 26.9764Z" fill="#1F2937"/>
<path d="M59.8541 24.0468V11.266H62.6586V23.1862C62.6586 24.6998 63.0069 25.7679 63.7034 26.3905C64.4 27.0009 65.4143 27.306 66.7463 27.306C67.7972 27.306 68.8115 27.0436 69.7891 26.5187C70.7667 25.9938 71.5305 25.3468 72.0804 24.5778V11.266H74.9033V29.3751H72.0804V26.83C71.3228 27.6844 70.3757 28.3986 69.2392 28.9723C68.1027 29.546 66.899 29.8329 65.6281 29.8329C61.7787 29.8329 59.8541 27.9042 59.8541 24.0468Z" fill="#1F2937"/>
<path d="M78.2783 29.3751V11.266H81.0828V14.1591C81.8649 13.1581 82.7753 12.3585 83.8141 11.7604C84.8528 11.15 85.9587 10.8448 87.1319 10.8448V13.7379C86.6919 13.6891 86.3314 13.6647 86.0504 13.6647C85.1827 13.6647 84.2418 13.9637 83.2275 14.5619C82.2132 15.1478 81.4983 15.8131 81.0828 16.5577V29.3751H78.2783Z" fill="#1F2937"/>
<path d="M87.354 20.2931C87.354 18.5597 87.7329 16.9728 88.4905 15.5323C89.2604 14.0797 90.3297 12.9323 91.6983 12.09C93.067 11.2355 94.6006 10.8082 96.2993 10.8082C98.0834 10.8082 99.6415 11.2416 100.974 12.1083C102.306 12.975 103.308 14.1407 103.98 15.6056C104.664 17.0582 105.006 18.7001 105.006 20.5311V21.2452H90.3602C90.4702 23.0275 91.1056 24.5167 92.2666 25.713C93.4397 26.9093 94.9672 27.5074 96.8492 27.5074C97.9123 27.5074 98.9327 27.306 99.9103 26.9032C100.9 26.5004 101.762 25.9266 102.495 25.182L103.833 27.0131C101.914 28.8929 99.5132 29.8329 96.6292 29.8329C93.9163 29.8329 91.6922 28.9479 89.9569 27.1779C88.2217 25.4078 87.354 23.1129 87.354 20.2931ZM90.3235 19.1395H102.22C102.208 18.4437 102.079 17.754 101.835 17.0704C101.603 16.3868 101.255 15.746 100.79 15.1478C100.326 14.5497 99.7026 14.0675 98.9205 13.7013C98.1384 13.3229 97.2524 13.1337 96.2626 13.1337C95.3339 13.1337 94.4907 13.3168 93.733 13.683C92.9753 14.0492 92.3582 14.5314 91.8816 15.1295C91.4173 15.7155 91.0507 16.3563 90.7818 17.0521C90.513 17.7357 90.3602 18.4315 90.3235 19.1395Z" fill="#1F2937"/>
<path d="M117.124 29.6876V14.4439H122.586V10.9283H107.607V14.4439H113.098V29.6876H117.124Z" fill="#1F2937"/>
<path d="M139.818 29.6876L135.567 22.5439C137.594 22.0658 139.706 20.2658 139.706 16.9751C139.706 13.4876 137.284 10.9283 133.371 10.9283H124.586V29.6876H128.584V23.022H131.512L135.201 29.6876H139.818ZM132.807 19.5064H128.584V14.4439H132.807C134.384 14.4439 135.595 15.4001 135.595 16.947C135.595 18.5501 134.384 19.5064 132.807 19.5064Z" fill="#1F2937"/>
<path d="M146.113 29.6876V10.9283H142.115V29.6876H146.113Z" fill="#1F2937"/>
<path d="M158.401 30.0251C161.779 30.0251 164.454 28.647 166.369 26.5095V19.3095H157.415V22.797H162.37V25.047C161.61 25.7501 160.062 26.4814 158.401 26.4814C154.966 26.4814 152.488 23.8658 152.488 20.322C152.488 16.7783 154.966 14.1626 158.401 14.1626C160.371 14.1626 161.976 15.2876 162.849 16.6095L166.143 14.8095C164.736 12.5876 162.286 10.6189 158.401 10.6189C152.882 10.6189 148.377 14.3876 148.377 20.322C148.377 26.2283 152.882 30.0251 158.401 30.0251Z" fill="#1F2937"/>
<path d="M178.102 30.0251C181.48 30.0251 184.155 28.647 186.07 26.5095V19.3095H177.116V22.797H182.072V25.047C181.311 25.7501 179.763 26.4814 178.102 26.4814C174.667 26.4814 172.189 23.8658 172.189 20.322C172.189 16.7783 174.667 14.1626 178.102 14.1626C180.073 14.1626 181.677 15.2876 182.55 16.6095L185.844 14.8095C184.437 12.5876 181.987 10.6189 178.102 10.6189C172.583 10.6189 168.078 14.3876 168.078 20.322C168.078 26.2283 172.583 30.0251 178.102 30.0251Z" fill="#1F2937"/>
<path d="M201.97 29.6876V26.172H192.679V21.897H201.773V18.3814H192.679V14.4439H201.97V10.9283H188.68V29.6876H201.97Z" fill="#1F2937"/>
<path d="M219.764 29.6876L215.513 22.5439C217.54 22.0658 219.652 20.2658 219.652 16.9751C219.652 13.4876 217.23 10.9283 213.317 10.9283H204.532V29.6876H208.53V23.022H211.458L215.147 29.6876H219.764ZM212.754 19.5064H208.53V14.4439H212.754C214.33 14.4439 215.541 15.4001 215.541 16.947C215.541 18.5501 214.33 19.5064 212.754 19.5064Z" fill="#1F2937"/>
<path d="M228.762 30.0251C233.802 30.0251 236.28 27.4376 236.28 24.0064C236.28 17.0033 225.496 19.0001 225.496 16.047C225.496 14.922 226.453 14.1908 228.143 14.1908C230.057 14.1908 232.085 14.8376 233.605 16.2439L235.829 13.2626C233.971 11.547 231.493 10.647 228.509 10.647C224.088 10.647 221.385 13.2345 221.385 16.3564C221.385 23.4158 232.197 21.1376 232.197 24.4001C232.197 25.497 231.155 26.4814 228.931 26.4814C226.341 26.4814 224.285 25.3001 222.962 23.922L220.766 27.0439C222.54 28.8158 225.13 30.0251 228.762 30.0251Z" fill="#1F2937"/>
<path fill-rule="evenodd" clip-rule="evenodd" d="M18.0574 37.5C27.7329 37.5 35.5764 29.665 35.5764 20C35.5764 10.335 27.7329 2.5 18.0574 2.5C8.38196 2.5 0.538452 10.335 0.538452 20C0.538452 29.665 8.38196 37.5 18.0574 37.5ZM18.1329 11.25C16.7262 11.25 14.7795 12.0536 13.7848 13.0449L11.0832 15.7372H24.5488L29.0514 11.25H18.1329ZM22.3073 26.9551C21.3127 27.9464 19.366 28.75 17.9593 28.75H7.04073L11.5433 24.2628H25.0089L22.3073 26.9551ZM26.6837 17.9808H8.83683L7.99381 18.8221C5.99766 20.617 6.58968 22.0192 9.3852 22.0192H27.2804L28.1238 21.1779C30.1005 19.3936 29.4793 17.9808 26.6837 17.9808Z" fill="#2D64FB"/>
</g>
<defs>
<clipPath id="clip0_1930_33276">
<rect width="236.923" height="40" fill="white" transform="translate(0.538452)"/>
</clipPath>
</defs>
</svg>
