<svg width="284" height="48" viewBox="0 0 284 48" fill="none" xmlns="http://www.w3.org/2000/svg">
<path d="M51.0381 32.3716L52.73 29.9326C53.5063 30.8115 54.5391 31.5513 55.8281 32.1519C57.1172 32.7524 58.4722 33.0527 59.8931 33.0527C61.519 33.0527 62.7861 32.7085 63.6943 32.02C64.6172 31.3315 65.0786 30.4307 65.0786 29.3174C65.0786 28.6143 64.8296 28.021 64.3315 27.5376C63.8335 27.0542 63.189 26.6807 62.3979 26.417C61.6069 26.1533 60.7354 25.9116 59.7832 25.6919C58.8311 25.4722 57.8716 25.2158 56.9048 24.9229C55.9526 24.6299 55.0811 24.271 54.29 23.8462C53.499 23.4214 52.8545 22.8208 52.3564 22.0444C51.8584 21.2534 51.6094 20.3159 51.6094 19.2319C51.6094 17.4448 52.3271 15.958 53.7627 14.7715C55.1982 13.5703 57.1685 12.9697 59.6733 12.9697C62.9839 12.9697 65.6645 14.0244 67.7153 16.1338L66.1553 18.4629C65.4814 17.6426 64.5732 16.9834 63.4307 16.4854C62.3027 15.9727 61.0503 15.7163 59.6733 15.7163C58.2231 15.7163 57.0586 16.0459 56.1797 16.7051C55.3008 17.3496 54.8613 18.1626 54.8613 19.144C54.8613 19.7739 55.1104 20.3086 55.6084 20.748C56.1064 21.1729 56.7437 21.5098 57.52 21.7588C58.311 21.9932 59.1826 22.2202 60.1348 22.4399C61.1016 22.645 62.061 22.9014 63.0132 23.209C63.98 23.5166 64.8516 23.8975 65.6279 24.3516C66.4189 24.791 67.0635 25.4282 67.5615 26.2632C68.0596 27.0981 68.3086 28.0869 68.3086 29.2295C68.3086 31.1338 67.5615 32.7085 66.0674 33.9536C64.5879 35.1841 62.5005 35.7993 59.8052 35.7993C56.1577 35.7993 53.2354 34.6567 51.0381 32.3716Z" fill="#0553F0"/>
<path d="M71.1018 28.856V13.519H74.4636V27.8232C74.4636 29.6396 74.8811 30.9214 75.716 31.6685C76.551 32.4009 77.7668 32.7671 79.3635 32.7671C80.6232 32.7671 81.8391 32.4521 83.0109 31.8223C84.1828 31.1924 85.0983 30.416 85.7575 29.4932V13.519H89.1413V35.25H85.7575V32.1958C84.8493 33.2212 83.7141 34.0781 82.3518 34.7666C80.9895 35.4551 79.5466 35.7993 78.0231 35.7993C73.4089 35.7993 71.1018 33.4849 71.1018 28.856Z" fill="#0553F0"/>
<path d="M93.1869 35.25V13.519H96.5487V16.9907C97.4862 15.7896 98.5775 14.8301 99.8227 14.1123C101.068 13.3799 102.393 13.0137 103.8 13.0137V16.4854C103.272 16.4268 102.84 16.3975 102.503 16.3975C101.463 16.3975 100.335 16.7563 99.1195 17.4741C97.9037 18.1772 97.0468 18.9756 96.5487 19.8691V35.25H93.1869Z" fill="#0553F0"/>
<path d="M104.066 24.3516C104.066 22.2715 104.52 20.3672 105.428 18.6387C106.351 16.8955 107.633 15.5186 109.274 14.5078C110.914 13.4824 112.753 12.9697 114.789 12.9697C116.927 12.9697 118.795 13.4897 120.392 14.5298C121.988 15.5698 123.19 16.9688 123.995 18.7266C124.816 20.4697 125.226 22.4399 125.226 24.6372V25.4941H107.67C107.801 27.6328 108.563 29.4199 109.955 30.8555C111.361 32.291 113.192 33.0088 115.448 33.0088C116.722 33.0088 117.945 32.7671 119.117 32.2837C120.304 31.8003 121.337 31.1118 122.215 30.2183L123.819 32.4155C121.52 34.6714 118.641 35.7993 115.184 35.7993C111.932 35.7993 109.266 34.7373 107.186 32.6133C105.106 30.4893 104.066 27.7354 104.066 24.3516ZM107.626 22.9673H121.886C121.871 22.1323 121.717 21.3047 121.424 20.4844C121.146 19.6641 120.729 18.895 120.172 18.1772C119.615 17.4595 118.868 16.8809 117.931 16.4414C116.993 15.9873 115.931 15.7603 114.745 15.7603C113.631 15.7603 112.621 15.98 111.712 16.4194C110.804 16.8589 110.065 17.4375 109.493 18.1553C108.937 18.8584 108.497 19.6274 108.175 20.4624C107.853 21.2827 107.67 22.1177 107.626 22.9673Z" fill="#0553F0"/>
<path d="M139.751 35.6252V17.3327H146.299V13.1139H128.344V17.3327H134.925V35.6252H139.751Z" fill="#0553F0"/>
<path d="M166.955 35.6252L161.859 27.0527C164.289 26.4789 166.82 24.3189 166.82 20.3702C166.82 16.1852 163.917 13.1139 159.226 13.1139H148.696V35.6252H153.489V27.6264H156.999L161.42 35.6252H166.955ZM158.551 23.4077H153.489V17.3327H158.551C160.441 17.3327 161.892 18.4802 161.892 20.3364C161.892 22.2602 160.441 23.4077 158.551 23.4077Z" fill="#0553F0"/>
<path d="M174.501 35.6252V13.1139H169.708V35.6252H174.501Z" fill="#0553F0"/>
<path d="M189.23 36.0302C193.28 36.0302 196.486 34.3764 198.781 31.8114V23.1714H188.048V27.3564H193.988V30.0564C193.077 30.9002 191.221 31.7777 189.23 31.7777C185.112 31.7777 182.142 28.6389 182.142 24.3864C182.142 20.1339 185.112 16.9952 189.23 16.9952C191.592 16.9952 193.516 18.3452 194.562 19.9314L198.511 17.7714C196.823 15.1052 193.887 12.7427 189.23 12.7427C182.615 12.7427 177.215 17.2652 177.215 24.3864C177.215 31.4739 182.615 36.0302 189.23 36.0302Z" fill="#0553F0"/>
<path d="M212.845 36.0302C216.895 36.0302 220.102 34.3764 222.397 31.8114V23.1714H211.664V27.3564H217.604V30.0564C216.693 30.9002 214.837 31.7777 212.845 31.7777C208.728 31.7777 205.758 28.6389 205.758 24.3864C205.758 20.1339 208.728 16.9952 212.845 16.9952C215.208 16.9952 217.132 18.3452 218.178 19.9314L222.127 17.7714C220.439 15.1052 217.503 12.7427 212.845 12.7427C206.23 12.7427 200.83 17.2652 200.83 24.3864C200.83 31.4739 206.23 36.0302 212.845 36.0302Z" fill="#0553F0"/>
<path d="M241.456 35.6252V31.4064H230.319V26.2764H241.22V22.0577H230.319V17.3327H241.456V13.1139H225.526V35.6252H241.456Z" fill="#0553F0"/>
<path d="M262.786 35.6252L257.69 27.0527C260.12 26.4789 262.651 24.3189 262.651 20.3702C262.651 16.1852 259.749 13.1139 255.058 13.1139H244.528V35.6252H249.32V27.6264H252.83L257.251 35.6252H262.786ZM254.383 23.4077H249.32V17.3327H254.383C256.273 17.3327 257.724 18.4802 257.724 20.3364C257.724 22.2602 256.273 23.4077 254.383 23.4077Z" fill="#0553F0"/>
<path d="M273.572 36.0302C279.613 36.0302 282.583 32.9252 282.583 28.8077C282.583 20.4039 269.657 22.8002 269.657 19.2564C269.657 17.9064 270.805 17.0289 272.83 17.0289C275.125 17.0289 277.555 17.8052 279.377 19.4927L282.043 15.9152C279.816 13.8564 276.846 12.7764 273.268 12.7764C267.97 12.7764 264.73 15.8814 264.73 19.6277C264.73 28.0989 277.69 25.3652 277.69 29.2802C277.69 30.5964 276.441 31.7777 273.775 31.7777C270.67 31.7777 268.206 30.3602 266.62 28.7064L263.987 32.4527C266.113 34.5789 269.218 36.0302 273.572 36.0302Z" fill="#0553F0"/>
<path fill-rule="evenodd" clip-rule="evenodd" d="M21 45C32.598 45 42 35.598 42 24C42 12.402 32.598 3 21 3C9.40202 3 0 12.402 0 24C0 35.598 9.40202 45 21 45ZM21.0904 13.5C19.4042 13.5 17.0707 14.4643 15.8784 15.6538L12.64 18.8846H28.7813L34.1785 13.5H21.0904ZM26.0944 32.3462C24.9021 33.5357 22.5686 34.5 20.8824 34.5H7.79429L13.1915 29.1154H29.3327L26.0944 32.3462ZM31.3404 21.5769H9.94727L8.93674 22.5866C6.54395 24.7404 7.25362 26.4231 10.6046 26.4231H32.0557L33.0665 25.4135C35.4361 23.2723 34.6914 21.5769 31.3404 21.5769Z" fill="#0553F0"/>
</svg>
